<?xml version="1.0" encoding="UTF-8"?>
<svg version="1.1" xmlns="http://www.w3.org/2000/svg" width="1625" height="865">
<path d="M0 0 C10.37840823 7.99499471 17.04367731 17.46580953 21 30 C21.03437263 31.66631219 21.03953808 33.33380238 21 35 C17.06495351 36.34065238 13.12658354 37.67126071 9.1875 39 C8.06794922 39.3815625 6.94839844 39.763125 5.79492188 40.15625 C4.72177734 40.5171875 3.64863281 40.878125 2.54296875 41.25 C1.55321045 41.58515625 0.56345215 41.9203125 -0.45629883 42.265625 C-3 43 -3 43 -6 43 C-6.29132813 42.21496094 -6.58265625 41.42992187 -6.8828125 40.62109375 C-10.60440309 31.08305497 -14.28508921 24.71065187 -23.58984375 20.00390625 C-32.92047698 16.11740262 -43.39399387 15.85922965 -52.8125 19.6875 C-60.09443482 23.39442697 -64.66738145 27.49702011 -67.40625 35.34765625 C-68.68898795 41.07778169 -67.98900138 46.52642988 -65.4375 51.8125 C-60.75320659 58.70679671 -53.08166791 60.88536998 -45.3125 62.5 C-43.45830156 62.91522271 -41.60413586 63.33059169 -39.75 63.74609375 C-38.33074219 64.05522705 -38.33074219 64.05522705 -36.8828125 64.37060547 C-32.18374149 65.39653747 -27.49731635 66.4736173 -22.8125 67.5625 C-21.9769458 67.748125 -21.1413916 67.93375 -20.28051758 68.125 C-15.93450234 69.13035999 -11.99865111 70.37972472 -7.91015625 72.17578125 C-3.15438663 74.13914695 0.33294944 74.37207598 5.375 73.625 C6.15230469 73.52775635 6.92960937 73.4305127 7.73046875 73.33032227 C20.76187023 71.53750369 34.50941325 69.16352892 47 65 C47.33 41.24 47.66 17.48 48 -7 C83.64 -7 119.28 -7 156 -7 C156 2.24 156 11.48 156 21 C130.26 21 104.52 21 78 21 C78 34.53 78 48.06 78 62 C81.3825 61.21625 84.765 60.4325 88.25 59.625 C95.98323434 57.89203141 103.60233204 56.54656514 111.5 55.875 C124.09753967 54.77067022 134.50745794 53.35276543 145.40625 46.39453125 C147.97959131 45.01097275 149.15261717 44.56951196 152 44.9375 C155 46 155 46 156.859375 47.04296875 C166.40197387 51.30927664 180.57191269 46.72699309 190.328125 44.97265625 C198.62429297 43.50355042 206.58141126 42.88142833 215 43 C215.26325577 42.18800392 215.26325577 42.18800392 215.53182983 41.35960388 C217.37998963 35.7287079 219.40186483 30.18709783 221.5390625 24.66015625 C221.86538666 23.81198837 222.19171082 22.9638205 222.52792358 22.08995056 C223.21101854 20.31570198 223.89508082 18.54182554 224.58007812 16.76831055 C225.63125285 14.04630834 226.67913907 11.32305699 227.7265625 8.59960938 C228.39303838 6.86971815 229.05969837 5.13989784 229.7265625 3.41015625 C230.19686386 2.18837425 230.19686386 2.18837425 230.67666626 0.94190979 C232.8838684 -4.7677368 232.8838684 -4.7677368 234 -7 C245.55 -7 257.1 -7 269 -7 C272.69915263 1.13813579 276.11976515 9.17523951 279.3125 17.5 C279.76689453 18.6653125 280.22128906 19.830625 280.68945312 21.03125 C281.33237305 22.701875 281.33237305 22.701875 281.98828125 24.40625 C282.37540283 25.40978516 282.76252441 26.41332031 283.16137695 27.44726562 C284 30 284 30 284 33 C288.26838806 33.02491426 292.53673639 33.04296047 296.80517578 33.05493164 C298.25407652 33.05992785 299.70297231 33.06672709 301.15185547 33.07543945 C310.19531363 33.24581532 310.19531363 33.24581532 319.1875 32.5 C324.7902805 31.76520912 330.35660255 31.89548158 336 31.9375 C337.73443359 31.94426758 337.73443359 31.94426758 339.50390625 31.95117188 C342.33599225 31.96287471 345.16796811 31.97927004 348 32 C348.1697937 31.11356812 348.1697937 31.11356812 348.34301758 30.20922852 C351.10757567 16.68180271 359.59928152 6.85215203 370.80102539 -0.83813477 C386.52668984 -11.07522516 406.44844079 -12.55450288 424.66015625 -9.31640625 C438.69623314 -5.81827333 450.77586173 1.2204448 458.8125 13.4375 C466 25.47238372 466 25.47238372 466 32 C474.91 32 483.82 32 493 32 C493 19.13 493 6.26 493 -7 C528.64 -7 564.28 -7 601 -7 C601 2.24 601 11.48 601 21 C575.59 21 550.18 21 524 21 C524 24.63 524 28.26 524 32 C525.10698242 31.98952637 526.21396484 31.97905273 527.35449219 31.96826172 C536.20237728 31.89185657 545.05022959 31.85299346 553.8984375 31.875 C554.75080994 31.8741037 555.60318237 31.8732074 556.48138428 31.87228394 C563.97967973 31.90365946 571.38621084 32.46689106 578.8203125 33.4375 C585.20374978 34.20903836 591.62382816 34.43892519 598.04177856 34.7611084 C625.20064976 36.16185892 651.14375009 38.9176107 677 48 C678.30952637 48.45511963 678.30952637 48.45511963 679.64550781 48.91943359 C694.19225895 54.09321844 706.90820658 62.5353116 715.22265625 75.9765625 C716.26028817 78.26039558 716.91603369 80.56852958 717.39453125 83.02734375 C718.18853154 87.01218633 718.74683887 89.16917643 722.0625 91.6875 C725 94 725 94 725.8203125 96.17578125 C726.05925053 99.93126372 725.0397472 103.00839528 723.8125 106.5 C723.60302734 107.15097656 723.39355469 107.80195312 723.17773438 108.47265625 C721.75454855 112.65352856 720.03220584 115.78801911 717 119 C714.5625 120 714.5625 120 712 120 C709.37524414 118.87207031 709.37524414 118.87207031 707 117 C706.40405273 114.29199219 706.40405273 114.29199219 706.43359375 111.046875 C706.4171582 109.28150391 706.4171582 109.28150391 706.40039062 107.48046875 C706.41875977 105.63388672 706.41875977 105.63388672 706.4375 103.75 C706.73808957 92.64650333 706.73808957 92.64650333 702 83 C699.5609294 80.79857668 699.5609294 80.79857668 697 79 C696.44151367 78.34386719 695.88302734 77.68773437 695.30761719 77.01171875 C692.32145499 74.40846266 689.35733883 73.77521982 685.578125 73 C684.84994064 72.83880173 684.12175629 72.67760345 683.37150574 72.51152039 C681.00078359 71.99183196 678.62600681 71.49491832 676.25 71 C674.60284125 70.64738004 672.95578776 70.29426809 671.30883789 69.94067383 C645.47839886 64.44537408 619.33878265 60.27294226 592.90893555 59.2902832 C589.93596583 59.17880113 587.06618589 59.01154895 584.13253784 58.49964905 C581.07019143 58.01119574 578.18459088 57.84287141 575.08642578 57.79467773 C573.94569611 57.77473251 572.80496643 57.75478729 571.62966919 57.73423767 C570.41383148 57.71752518 569.19799377 57.70081268 567.9453125 57.68359375 C566.06028519 57.6524221 566.06028519 57.6524221 564.13717651 57.62062073 C560.81314299 57.56645388 557.48909743 57.51616207 554.16497803 57.46777344 C550.76618283 57.41733504 547.36747184 57.36176617 543.96875 57.30664062 C537.31256728 57.19971743 530.65632114 57.09790536 524 57 C524 59.97 524 62.94 524 66 C547.1 66 570.2 66 594 66 C594 75.24 594 84.48 594 94 C570.9 94 547.8 94 524 94 C524 108.85 524 123.7 524 139 C549.41 139 574.82 139 601 139 C601 148.24 601 157.48 601 167 C565.36 167 529.72 167 493 167 C493 131.36 493 95.72 493 59 C477.82 59 462.64 59 447 59 C440.565 57.515 440.565 57.515 434 56 C430.23728262 55.92718999 426.77898855 55.95666583 423.0625 56.25 C422.16982422 56.30285156 421.27714844 56.35570312 420.35742188 56.41015625 C415.83834205 56.69825178 411.46590124 57.24664284 407 58 C404.21145221 58.24714379 401.42004937 58.40834267 398.625 58.5625 C397.88894531 58.60568359 397.15289063 58.64886719 396.39453125 58.69335938 C394.59651932 58.79843799 392.79828042 58.89962093 391 59 C393.80569736 61.80569736 396.95846429 61.98109844 400.7265625 62.69921875 C402.33345317 63.02479973 403.94021979 63.35099343 405.546875 63.67773438 C408.06146231 64.18060337 410.57674963 64.6781943 413.09472656 65.16381836 C432.78232621 68.98846691 450.42772824 74.86383658 462.30859375 92.12109375 C469.16029096 103.78322041 470.81787025 117.04537248 467.8125 130.1875 C463.65581602 144.76462677 454.73297835 155.71815648 441.6640625 163.3671875 C423.47871145 173.06221693 401.58383627 173.16565173 382 168 C373.7095514 165.33102303 366.8621305 161.31606991 360 156 C359.16339844 155.37351562 358.32679688 154.74703125 357.46484375 154.1015625 C348.53004336 146.48361858 342.41043354 134.39477676 340 123 C339.97292728 120.66682373 339.96959184 118.33313518 340 116 C344.10238344 114.82699911 348.20718259 113.66268694 352.3125 112.5 C353.47974609 112.16613281 354.64699219 111.83226562 355.84960938 111.48828125 C357.52700195 111.01455078 357.52700195 111.01455078 359.23828125 110.53125 C360.26993408 110.23798828 361.30158691 109.94472656 362.36450195 109.64257812 C365 109 365 109 368 109 C368.21914063 109.83402344 368.43828125 110.66804687 368.6640625 111.52734375 C371.88533301 122.9589257 376.52576808 132.04306511 387.0234375 138.18359375 C398.61943914 143.89786893 411.2608096 144.03500352 423.51953125 140.21484375 C429.40723554 137.61434721 433.19712316 133.11406 436.375 127.625 C438.11233108 120.32820947 437.19646806 114.79236391 433.52734375 108.2265625 C425.64222634 96.7316343 406.95397723 95.79662795 394.37304688 93.37695312 C378.97623513 90.25333239 365.22477198 84.29195414 355 72 C350 64.41504854 350 64.41504854 350 61 C332.32962044 61.58813014 314.6635276 62.23051449 297 63 C297 63.99 297 64.98 297 66 C302.94 65.67 308.88 65.34 315 65 C311.2632157 67.49118953 309.25548181 67.2065226 304.8125 67.125 C303.54019531 67.10695313 302.26789062 67.08890625 300.95703125 67.0703125 C299.98121094 67.04710937 299.00539063 67.02390625 298 67 C298.36629517 67.88123535 298.36629517 67.88123535 298.73999023 68.78027344 C305.99991733 86.30229076 312.89028095 103.95576685 319.70068359 121.65649414 C320.42411624 123.53663549 321.14758592 125.41676258 321.87109375 127.296875 C322.22361206 128.21303085 322.57613037 129.12918671 322.93933105 130.07310486 C326.55800648 139.46722038 330.24110559 148.83551575 333.953125 158.19311523 C334.36175781 159.22637939 334.77039063 160.25964355 335.19140625 161.32421875 C335.54404541 162.21197998 335.89668457 163.09974121 336.26000977 164.0144043 C337 166 337 166 337 167 C325.78 167 314.56 167 303 167 C295.08 146.21 295.08 146.21 287 125 C263.24 125 239.48 125 215 125 C210.10732265 138.07352654 210.10732265 138.07352654 205.21704102 151.14794922 C204.60441648 152.78356125 203.9917105 154.41914279 203.37890625 156.0546875 C203.06014526 156.90812744 202.74138428 157.76156738 202.41296387 158.64086914 C202.1085437 159.45273682 201.80412354 160.26460449 201.49047852 161.10107422 C201.22622574 161.8072287 200.96197296 162.51338318 200.68971252 163.24093628 C200 165 200 165 199 167 C188.44 167 177.88 167 167 167 C170.37508264 155.74972453 170.37508264 155.74972453 171.91015625 151.81103516 C172.25517181 150.92025772 172.60018738 150.02948029 172.95565796 149.11170959 C173.32091583 148.18023605 173.68617371 147.24876251 174.0625 146.2890625 C174.4507193 145.29003403 174.8389386 144.29100555 175.23892212 143.26170349 C176.48886653 140.04799463 177.74428869 136.83645937 179 133.625 C179.86014962 131.41734787 180.72001183 129.20958374 181.57958984 127.00170898 C183.67209284 121.63021765 185.76931125 116.2605856 187.86901855 110.89190674 C188.89676169 108.26397919 189.92367063 105.6357279 190.95019531 103.00732422 C193.34836725 96.86824307 195.7505384 90.73071974 198.1640625 84.59765625 C198.49873535 83.74695557 198.8334082 82.89625488 199.17822266 82.01977539 C200 80 200 80 201 78 C183.84 79.98 166.68 81.96 149 84 C149 87.3 149 90.6 149 94 C125.57 94 102.14 94 78 94 C78 108.85 78 123.7 78 139 C103.74 139 129.48 139 156 139 C156 148.24 156 157.48 156 167 C120.36 167 84.72 167 48 167 C48 144.89 48 122.78 48 100 C40.74 101.32 33.48 102.64 26 104 C24.68 104 23.36 104 22 104 C22.24012817 104.86347046 22.24012817 104.86347046 22.48510742 105.74438477 C25.57858034 119.29611371 22.78119781 133.92946285 15.875 145.75 C6.69808033 159.09824679 -7.2350474 166.91812957 -23 170 C-44.29576537 173.59571782 -65.40530693 169.99067985 -83.47265625 157.859375 C-92.49263451 151.22334771 -100.50802824 141.16621224 -103 130 C-104.07483643 130.27263672 -104.07483643 130.27263672 -105.17138672 130.55078125 C-108.40531193 131.36962938 -111.64013849 132.18485896 -114.875 133 C-116.00292969 133.28617188 -117.13085938 133.57234375 -118.29296875 133.8671875 C-119.36933594 134.13789062 -120.44570313 134.40859375 -121.5546875 134.6875 C-123.04718018 135.06455078 -123.04718018 135.06455078 -124.56982422 135.44921875 C-127 136 -127 136 -129 136 C-129 146.23 -129 156.46 -129 167 C-139.23 167 -149.46 167 -160 167 C-160 159.41 -160 151.82 -160 144 C-164.29 144.99 -168.58 145.98 -173 147 C-172.34 147.66 -171.68 148.32 -171 149 C-180.59141214 152.31019033 -190.06589111 154.7053044 -200.05712891 156.47509766 C-206.77711537 157.6927969 -213.2633484 159.36375383 -219.81274414 161.28515625 C-223.97159373 162.48956283 -228.0127697 163.40344056 -232.3125 164 C-236.38125454 164.57866731 -239.66800093 165.62924599 -243.41796875 167.2890625 C-253.26063666 171.15263035 -263.61883833 172.59928404 -274 174.375 C-276.20835428 174.76186753 -278.41660478 175.14932788 -280.62475586 175.53735352 C-295.58052735 178.14692073 -310.56282961 180.59424028 -325.5625 182.9375 C-326.47878174 183.08088806 -327.39506348 183.22427612 -328.33911133 183.37200928 C-361.16451405 188.48030871 -361.16451405 188.48030871 -376.52050781 188.06201172 C-378.36596249 188.01585718 -380.21176358 187.98316457 -382.05761719 187.95751953 C-385.4766328 187.90904766 -388.89414015 187.83218718 -392.3125 187.75 C-393.39781006 187.73606201 -394.48312012 187.72212402 -395.60131836 187.70776367 C-409.56706466 187.27829433 -426.20864081 180.53337857 -436.578125 170.83203125 C-439.81094842 166.66666261 -441.908559 161.81096182 -444 157 C-444.37769531 156.154375 -444.75539063 155.30875 -445.14453125 154.4375 C-446.59692466 150.29917356 -446.55082951 146.32296581 -446 142 C-444.4375 138.8125 -444.4375 138.8125 -442 136 C-441.58363281 135.48308594 -441.16726563 134.96617187 -440.73828125 134.43359375 C-433.07509095 125.76473543 -420.42289565 118.83012237 -410 114 C-409.34 114 -408.68 114 -408 114 C-408 113.01 -408 112.02 -408 111 C-398.6707898 105.65943253 -389.33727218 100.32645733 -380 95 C-378.94506348 94.39800781 -377.89012695 93.79601562 -376.80322266 93.17578125 C-365.81847439 86.91442001 -354.78765309 80.74220429 -343.6875 74.6875 C-342.64819336 74.11749268 -341.60888672 73.54748535 -340.53808594 72.96020508 C-339.58063477 72.44095459 -338.62318359 71.9217041 -337.63671875 71.38671875 C-336.78811279 70.92483154 -335.93950684 70.46294434 -335.06518555 69.98706055 C-333 69 -333 69 -331 69 C-331 43.92 -331 18.84 -331 -7 C-313.9534375 -7.0928125 -313.9534375 -7.0928125 -296.5625 -7.1875 C-293.01056885 -7.21481201 -289.4586377 -7.24212402 -285.79907227 -7.27026367 C-281.36901855 -7.28381348 -281.36901855 -7.28381348 -279.27720642 -7.28633118 C-277.85542459 -7.29085567 -276.4336522 -7.30122891 -275.01194763 -7.31672668 C-255.54022135 -7.51786109 -238.32264863 -4.06704402 -221.2421875 5.765625 C-218.94298951 7.11928076 -218.94298951 7.11928076 -216 8 C-214.16108763 7.45204363 -214.16108763 7.45204363 -212.1875 6.5625 C-204.85902915 3.97598088 -195.75434478 3.2809321 -188.5625 6.625 C-183.4708594 9.71283365 -178.2172673 13.30000065 -176 19 C-176.07264809 23.57682966 -176.2580172 25.93649131 -178.875 29.6875 C-183.24520387 32.92145086 -187.98984535 34.93802742 -193 37 C-192.59007812 38.17175781 -192.18015625 39.34351563 -191.7578125 40.55078125 C-191.21312808 42.13787895 -190.66888087 43.72512675 -190.125 45.3125 C-189.85558594 46.07884766 -189.58617187 46.84519531 -189.30859375 47.63476562 C-185.53601932 58.72245388 -184.69932768 69.13192546 -184.8125 80.8125 C-184.81314453 82.09576172 -184.81378906 83.37902344 -184.81445312 84.70117188 C-184.84049557 90.2655737 -184.9645581 95.51912974 -186 101 C-185.35450195 100.84853516 -184.70900391 100.69707031 -184.04394531 100.54101562 C-181.11367229 99.85612621 -178.18187527 99.17799616 -175.25 98.5 C-174.23421875 98.26152344 -173.2184375 98.02304687 -172.171875 97.77734375 C-170.70234375 97.43896484 -170.70234375 97.43896484 -169.203125 97.09375 C-168.30239258 96.88427734 -167.40166016 96.67480469 -166.47363281 96.45898438 C-164 96 -164 96 -160 96 C-160 62.01 -160 28.02 -160 -7 C-149.77 -7 -139.54 -7 -129 -7 C-129 24.35 -129 55.7 -129 88 C-121.74 86.68 -114.48 85.36 -107 84 C-97 83.4375 -97 83.4375 -92.75 83.37109375 C-88.82657786 82.98283843 -86.3722571 81.9864702 -83 80 C-83.88751953 79.10861328 -83.88751953 79.10861328 -84.79296875 78.19921875 C-95.57495208 66.88956903 -99.4954728 55.21478671 -99.25 39.75 C-98.23652373 24.54785594 -90.81055735 13.17891813 -79.875 3.02734375 C-58.52357912 -14.83092188 -22.78313149 -15.62867252 0 0 Z M384 24 C382.27970517 25.95467947 381.21667338 27.67725991 380 30 C381.2375 29.71125 382.475 29.4225 383.75 29.125 C388.47230702 28.05987397 393.2147595 27.32910538 398.0078125 26.66015625 C401.12894424 26.08279984 401.12894424 26.08279984 404.30859375 24.4765625 C408.65629616 22.73748154 412.30784381 22.45135001 416.9375 22.3125 C417.71673828 22.27833984 418.49597656 22.24417969 419.29882812 22.20898438 C421.19874393 22.1273929 423.09934403 22.06200115 425 22 C421.79641424 18.0845063 417.73048968 17.26923553 412.88671875 16.515625 C401.4512184 15.56615733 393.30264613 16.88522935 384 24 Z M-301 21 C-301 31.23 -301 41.46 -301 52 C-297.49701516 50.59880606 -294.58986462 49.23299792 -291.39306641 47.33422852 C-281.30572945 41.35958682 -270.69009113 36.55043873 -260.03344727 31.69824219 C-259.38729965 31.40233688 -258.74115204 31.10643158 -258.07542419 30.80155945 C-256.29448372 29.98677719 -254.51084288 29.17790492 -252.72705078 28.36938477 C-249.9383555 27.14808751 -249.9383555 27.14808751 -248 25 C-249.37291868 24.51490207 -250.74846703 24.03724487 -252.125 23.5625 C-252.89070313 23.29566406 -253.65640625 23.02882813 -254.4453125 22.75390625 C-260.27605696 21.03321255 -265.87610034 20.86350145 -271.8984375 20.90234375 C-273.15087753 20.90446617 -273.15087753 20.90446617 -274.42861938 20.90663147 C-277.07745042 20.91219826 -279.7261948 20.92474453 -282.375 20.9375 C-284.17838419 20.9425193 -285.98176971 20.94708145 -287.78515625 20.95117188 C-292.19016386 20.96130299 -296.5949857 20.9808847 -301 21 Z M251 28 C250.35242375 29.43671568 249.70700547 30.87440416 249.0625 32.3125 C248.70285156 33.11300781 248.34320312 33.91351563 247.97265625 34.73828125 C246.92153959 37.09489608 246.92153959 37.09489608 246 40 C250.455 39.505 250.455 39.505 255 39 C254.32829194 35.1936543 253.27253436 31.64793184 252 28 C251.67 28 251.34 28 251 28 Z M-228.4296875 54.34375 C-229.30197998 54.84471191 -230.17427246 55.34567383 -231.07299805 55.86181641 C-231.99765869 56.40241699 -232.92231934 56.94301758 -233.875 57.5 C-234.81577393 58.04446777 -235.75654785 58.58893555 -236.72583008 59.14990234 C-249.04070615 65.6602364 -249.04070615 65.6602364 -260 74 C-264.45108777 78.05274139 -269.46022389 80.27309498 -274.875 82.75 C-283.7583968 86.88882896 -292.39672808 91.30730623 -301 96 C-301 106.89 -301 117.78 -301 129 C-290.52771284 126.69744414 -290.52771284 126.69744414 -280.07421875 124.31640625 C-274.68375876 123.06711983 -269.28969933 121.83937368 -263.88525391 120.65185547 C-258.43900838 119.45316399 -253.00473959 118.20861706 -247.57470703 116.93859863 C-245.40383605 116.43877192 -243.22942488 115.95407444 -241.05175781 115.48474121 C-237.95735172 114.81489247 -234.87999268 114.09160496 -231.80078125 113.35546875 C-230.86974075 113.16677719 -229.93870026 112.97808563 -228.97944641 112.78367615 C-225.07545069 111.7999259 -222.736928 111.1733913 -220.53652954 107.66975403 C-219.49925011 105.12946226 -218.68491973 102.6550876 -218 100 C-217.59007812 98.47826172 -217.59007812 98.47826172 -217.171875 96.92578125 C-214.79230819 82.18568681 -214.87276491 65.90615965 -221 52 C-224.3955149 52 -225.53391391 52.66922966 -228.4296875 54.34375 Z M257 67 C257 67.33 257 67.66 257 68 C259.64 68 262.28 68 265 68 C265 67.67 265 67.34 265 67 C262.36 67 259.72 67 257 67 Z M235 70 C242.06608191 70.13794954 248.97360585 69.74805717 256 69 C256 68.67 256 68.34 256 68 C252.87507749 67.94208156 249.75029234 67.90643254 246.625 67.875 C245.29082031 67.84986328 245.29082031 67.84986328 243.9296875 67.82421875 C243.07890625 67.81777344 242.228125 67.81132813 241.3515625 67.8046875 C240.56604004 67.79421387 239.78051758 67.78374023 238.97119141 67.77294922 C236.765535 67.82009873 236.765535 67.82009873 235 70 Z M244.875 71 C243.823125 71.09539062 242.77125 71.19078125 241.6875 71.2890625 C239.12460652 71.52205282 236.56215969 71.75909676 234 72 C232.65853506 75.43438215 231.32824095 78.87298417 230 82.3125 C229.6184375 83.28896484 229.236875 84.26542969 228.84375 85.27148438 C228.30234375 86.67817383 228.30234375 86.67817383 227.75 88.11328125 C227.41484375 88.97735596 227.0796875 89.84143066 226.734375 90.73168945 C225.84599308 93.07831974 225.84599308 93.07831974 226 96 C242.5 96 259 96 276 96 C274.62968098 89.83356443 273.19198723 84.31449262 270.9375 78.5 C270.66873047 77.78585937 270.39996094 77.07171875 270.12304688 76.3359375 C268.99944413 72.90953383 268.99944413 72.90953383 267 70 C259.63275041 69.47362966 252.20456281 70.30993938 244.875 71 Z M192.93432617 73.55078125 C191.95368698 73.67090576 190.97304779 73.79103027 189.96269226 73.91479492 C188.39367912 74.11165894 188.39367912 74.11165894 186.79296875 74.3125 C185.71243729 74.44567627 184.63190582 74.57885254 183.51863098 74.71606445 C180.07456308 75.14120844 176.63103324 75.57054911 173.1875 76 C170.84964364 76.28933946 168.51175338 76.57840519 166.17382812 76.8671875 C160.44882195 77.5749516 154.7242516 78.28616014 149 79 C150.86487945 81.32847492 150.86487945 81.32847492 153.85253906 81.046875 C155.06135742 80.94890625 156.27017578 80.8509375 157.515625 80.75 C158.1771759 80.6977124 158.83872681 80.6454248 159.52032471 80.59155273 C166.86144589 79.98326824 174.18018831 79.14908725 181.49316406 78.27050781 C183.78911505 77.99531161 186.08587907 77.72779711 188.3828125 77.4609375 C189.85421955 77.28690483 191.32557585 77.11244245 192.796875 76.9375 C193.47804382 76.85830322 194.15921265 76.77910645 194.86102295 76.69750977 C197.72287858 76.34986649 200.25431381 75.91522873 203 75 C203 74.34 203 73.68 203 73 C199.58915053 72.9462239 196.31857308 73.1310297 192.93432617 73.55078125 Z M-18.6875 109 C-19.49574219 109.185625 -20.30398438 109.37125 -21.13671875 109.5625 C-21.75160156 109.706875 -22.36648438 109.85125 -23 110 C-23 110.33 -23 110.66 -23 111 C-21.37419034 110.88601335 -19.74932843 110.75844341 -18.125 110.625 C-17.22007812 110.55539062 -16.31515625 110.48578125 -15.3828125 110.4140625 C-12.82058097 110.20431868 -12.82058097 110.20431868 -11 108 C-13.79784711 108 -15.9790678 108.37195775 -18.6875 109 Z M-28 111 C-28 111.33 -28 111.66 -28 112 C-26.35 112 -24.7 112 -23 112 C-23 111.67 -23 111.34 -23 111 C-24.65 111 -26.3 111 -28 111 Z M-337.41796875 114.38671875 C-338.78852417 115.16680298 -338.78852417 115.16680298 -340.18676758 115.96264648 C-341.17700928 116.53184814 -342.16725098 117.1010498 -343.1875 117.6875 C-345.278549 118.88037809 -347.36969777 120.07308131 -349.4609375 121.265625 C-350.53956055 121.88244141 -351.61818359 122.49925781 -352.72949219 123.13476562 C-355.91042277 124.94891236 -359.09801328 126.75059564 -362.2890625 128.546875 C-363.2994458 129.11575439 -364.3098291 129.68463379 -365.35083008 130.27075195 C-367.26961426 131.350592 -369.18870317 132.42989083 -371.1081543 133.50854492 C-373.74463977 134.99567668 -376.37387517 136.49465633 -379 138 C-379.95310059 138.54156738 -380.90620117 139.08313477 -381.88818359 139.64111328 C-382.8055127 140.17333496 -383.7228418 140.70555664 -384.66796875 141.25390625 C-385.49965576 141.73287354 -386.33134277 142.21184082 -387.18823242 142.70532227 C-387.78611572 143.13256592 -388.38399902 143.55980957 -389 144 C-389 144.66 -389 145.32 -389 146 C-382.39810331 146.17907119 -376.39996752 145.56822904 -369.92578125 144.3203125 C-368.99831589 144.14748749 -368.07085052 143.97466248 -367.11528015 143.79660034 C-365.16914564 143.43221815 -363.22373926 143.06392714 -361.27905273 142.69189453 C-358.31209223 142.12492208 -355.34287392 141.57127024 -352.37304688 141.01953125 C-350.4738115 140.66223795 -348.57471774 140.30419091 -346.67578125 139.9453125 C-345.79440994 139.78064484 -344.91303864 139.61597717 -344.00495911 139.44631958 C-342.75787422 139.20629715 -342.75787422 139.20629715 -341.4855957 138.96142578 C-340.76217484 138.82374786 -340.03875397 138.68606995 -339.29341125 138.54421997 C-336.47991032 137.8765842 -333.74324125 136.91441375 -331 136 C-331 128.08 -331 120.16 -331 112 C-333.70051516 112 -335.07302763 113.0441094 -337.41796875 114.38671875 Z M-32 112 C-28 113 -28 113 -28 113 Z M-19.94921875 112.65234375 C-20.72183548 112.83132706 -21.49445221 113.01031036 -22.29048157 113.19471741 C-24.75797331 113.76815199 -27.22268609 114.35267364 -29.6875 114.9375 C-31.35985498 115.3282069 -33.03237927 115.71818984 -34.70507812 116.10742188 C-38.80539742 117.06322474 -42.90325908 118.02897919 -47 119 C-43.43904445 117.12498358 -39.8877114 116.04669153 -36 115 C-36 114.67 -36 114.34 -36 114 C-43.90031531 114.62998204 -51.3366608 116.39578112 -59 118.375 C-60.85818359 118.83132813 -60.85818359 118.83132813 -62.75390625 119.296875 C-63.92824219 119.59851563 -65.10257812 119.90015625 -66.3125 120.2109375 C-67.91544922 120.61771729 -67.91544922 120.61771729 -69.55078125 121.03271484 C-70.35902344 121.35191895 -71.16726563 121.67112305 -72 122 C-72.33 122.99 -72.66 123.98 -73 125 C-68.45355484 133.92168527 -60.082918 139.20712135 -50.8515625 142.24609375 C-39.41566453 145.26955719 -27.63492279 144.29204746 -17.1953125 138.53515625 C-11.84732417 134.79537081 -9.03222196 130.2387628 -7.5 123.9375 C-6.80153514 119.36572999 -7.1123538 116.22473196 -9 112 C-12.98222271 110.67259243 -15.99348392 111.7022929 -19.94921875 112.65234375 Z M-36 113 C-32 114 -32 114 -32 114 Z M-181 148 C-177 149 -177 149 -177 149 Z M-186 149 C-186 149.33 -186 149.66 -186 150 C-184.35 150 -182.7 150 -181 150 C-181 149.67 -181 149.34 -181 149 C-182.65 149 -184.3 149 -186 149 Z M-225 156 C-225 156.99 -225 157.98 -225 159 C-220.37226419 158.42953697 -216.13060281 157.52465876 -211.6875 156.125 C-203.24950356 153.63092123 -194.6901671 152.30056923 -186 151 C-186.495 150.01 -186.495 150.01 -187 149 C-200.14155136 148.72878599 -212.54504257 152.26208609 -225 156 Z M-231 159 C-231 159.33 -231 159.66 -231 160 C-229.35 160 -227.7 160 -226 160 C-226 159.67 -226 159.34 -226 159 C-227.65 159 -229.3 159 -231 159 Z " fill="#2A1DFE" transform="translate(446,466)"/>
<path d="M0 0 C13.2 0 26.4 0 40 0 C42.91920098 5.83840196 45.69095166 11.4108913 48.1796875 17.390625 C48.46508896 18.07282104 48.75049042 18.75501709 49.04454041 19.45788574 C49.66463738 20.94068724 50.2832617 22.42410529 50.90054321 23.90808105 C52.63539355 28.07745925 54.38267043 32.24163043 56.12890625 36.40625 C56.50824814 37.31155457 56.88759003 38.21685913 57.27842712 39.14959717 C62.87866985 52.49958955 68.57244029 65.80998462 74.25262451 79.12609863 C75.19128647 81.32667683 76.12984514 83.52729908 77.06829834 85.72796631 C77.9874467 87.8832567 78.90691623 90.03841015 79.82672119 92.19342041 C82.26870224 97.91935123 84.69790602 103.65044201 87.11083984 109.38867188 C87.6174968 110.59203186 88.12415375 111.79539185 88.64616394 113.03521729 C89.62298899 115.35703799 90.59776547 117.67972187 91.57026672 120.00335693 C92.00558212 121.0376886 92.44089752 122.07202026 92.8894043 123.13769531 C93.27380173 124.05464172 93.65819916 124.97158813 94.054245 125.9163208 C94.82774216 127.94495364 94.82774216 127.94495364 96 129 C114.15873486 86.06526114 132.16704774 43.0711135 150 0 C163.53 0 177.06 0 191 0 C191 57.42 191 114.84 191 174 C181.1 174 171.2 174 161 174 C160.67 134.07 160.34 94.14 160 53 C155.05 64.88 150.1 76.76 145 89 C142.08495617 95.88304205 139.16977657 102.76515193 136.23205566 109.63839722 C134.14726026 114.51653777 132.06776732 119.39693804 129.98828125 124.27734375 C129.57262909 125.25270584 129.15697693 126.22806793 128.72872925 127.23298645 C124.37492034 137.45621373 120.05789336 147.69485452 115.75 157.9375 C115.40139923 158.76634705 115.05279846 159.59519409 114.69363403 160.44915771 C112.79446464 164.96556443 110.89700779 169.48268397 109 174 C100.09 174 91.18 174 82 174 C77.32544 164.08404358 73.03049831 154.04948736 68.82592773 143.92764282 C66.85179151 139.17598838 64.86926938 134.42783605 62.88671875 129.6796875 C62.48154022 128.70898819 62.07636169 127.73828888 61.65890503 126.73817444 C56.83179765 115.18550061 51.92568438 103.66654094 47.01049805 92.15112305 C41.60085228 79.46262568 36.3059118 66.73418831 31 54 C30.67 93.6 30.34 133.2 30 174 C20.1 174 10.2 174 0 174 C0 116.58 0 59.16 0 0 Z " fill="#221F1F" transform="translate(449,687)"/>
<path d="M0 0 C0 0.99 0 1.98 0 3 C5.94 2.67 11.88 2.34 18 2 C14.2632157 4.49118953 12.25548181 4.2065226 7.8125 4.125 C6.54019531 4.10695313 5.26789063 4.08890625 3.95703125 4.0703125 C2.49330078 4.03550781 2.49330078 4.03550781 1 4 C1.36629517 4.88123535 1.36629517 4.88123535 1.73999023 5.78027344 C8.99991733 23.30229076 15.89028095 40.95576685 22.70068359 58.65649414 C23.42411624 60.53663549 24.14758592 62.41676258 24.87109375 64.296875 C25.39987122 65.67110878 25.39987122 65.67110878 25.93933105 67.07310486 C29.55800648 76.46722038 33.24110559 85.83551575 36.953125 95.19311523 C37.36175781 96.22637939 37.77039063 97.25964355 38.19140625 98.32421875 C38.54404541 99.21197998 38.89668457 100.09974121 39.26000977 101.0144043 C40 103 40 103 40 104 C28.78 104 17.56 104 6 104 C0.72 90.14 -4.56 76.28 -10 62 C-33.76 62 -57.52 62 -82 62 C-86.89267735 75.07352654 -86.89267735 75.07352654 -91.78295898 88.14794922 C-92.39558352 89.78356125 -93.0082895 91.41914279 -93.62109375 93.0546875 C-94.09923523 94.33484741 -94.09923523 94.33484741 -94.58703613 95.64086914 C-94.8914563 96.45273682 -95.19587646 97.26460449 -95.50952148 98.10107422 C-95.90590065 99.16030594 -95.90590065 99.16030594 -96.31028748 100.24093628 C-97 102 -97 102 -98 104 C-108.56 104 -119.12 104 -130 104 C-126.62491736 92.74972453 -126.62491736 92.74972453 -125.08984375 88.81103516 C-124.74482819 87.92025772 -124.39981262 87.02948029 -124.04434204 86.11170959 C-123.67908417 85.18023605 -123.31382629 84.24876251 -122.9375 83.2890625 C-122.5492807 82.29003403 -122.1610614 81.29100555 -121.76107788 80.26170349 C-120.51113347 77.04799463 -119.25571131 73.83645937 -118 70.625 C-117.13985038 68.41734787 -116.27998817 66.20958374 -115.42041016 64.00170898 C-113.32790716 58.63021765 -111.23068875 53.2605856 -109.13098145 47.89190674 C-108.10323831 45.26397919 -107.07632937 42.6357279 -106.04980469 40.00732422 C-103.65163275 33.86824307 -101.2494616 27.73071974 -98.8359375 21.59765625 C-98.50126465 20.74695557 -98.1665918 19.89625488 -97.82177734 19.01977539 C-97 17 -97 17 -96 15 C-113.16 16.98 -130.32 18.96 -148 21 C-148 24.3 -148 27.6 -148 31 C-171.43 31 -194.86 31 -219 31 C-219 45.85 -219 60.7 -219 76 C-193.26 76 -167.52 76 -141 76 C-141 85.24 -141 94.48 -141 104 C-176.64 104 -212.28 104 -249 104 C-249 81.89 -249 59.78 -249 37 C-256.26 38.32 -263.52 39.64 -271 41 C-272.32 41 -273.64 41 -275 41 C-274.83991455 41.57564697 -274.6798291 42.15129395 -274.51489258 42.74438477 C-271.42141966 56.29611371 -274.21880219 70.92946285 -281.125 82.75 C-290.30191967 96.09824679 -304.2350474 103.91812957 -320 107 C-341.29576537 110.59571782 -362.40530693 106.99067985 -380.47265625 94.859375 C-389.80706432 87.99202069 -397.95792255 77.65856359 -400 66 C-396.12796701 64.98826657 -392.25194898 63.99271358 -388.375 63 C-387.28058594 62.71382812 -386.18617188 62.42765625 -385.05859375 62.1328125 C-383.99511719 61.86210938 -382.93164062 61.59140625 -381.8359375 61.3125 C-380.86188965 61.06113281 -379.8878418 60.80976562 -378.88427734 60.55078125 C-375.82499028 59.96658017 -373.10661927 59.78213751 -370 60 C-368.3828125 61.7578125 -368.3828125 61.7578125 -367.125 64.125 C-361.93209662 72.67249213 -354.52885925 76.48072625 -345 79 C-334.4583109 81.06907078 -323.67768589 79.79887392 -314.19921875 74.609375 C-309.24458184 70.98360163 -306.04751707 65.93647517 -305 59.875 C-305 55.85170157 -305.8266468 52.82256472 -307 49 C-317.56241414 51.05349934 -328.0959633 53.13516193 -338.52905273 55.78027344 C-342.09665633 56.66055095 -345.32246525 57.19840265 -349 57 C-345.01880444 54.34586963 -340.95146084 53.35800793 -336.375 52.0625 C-335.44598877 51.79743652 -334.51697754 51.53237305 -333.55981445 51.25927734 C-325.12370498 48.91643359 -316.65254088 47.29277806 -308 46 C-308 45.34 -308 44.68 -308 44 C-303.96636382 43.17819736 -299.93191212 42.36054854 -295.89672852 41.54638672 C-294.53029865 41.27012363 -293.16407929 40.99281679 -291.7980957 40.71435547 C-283.88744938 39.10255037 -275.98173825 37.65071952 -267.99291992 36.46972656 C-264.33555801 35.89571854 -260.72693861 35.15742247 -257.10351562 34.40209961 C-237.75701636 30.40468382 -218.15718578 27.94221726 -198.6013031 25.2166748 C-189.4773001 23.93954502 -180.37327654 22.55489358 -171.28125 21.06616211 C-166.79838253 20.34827802 -162.55902619 19.81587132 -158 20 C-157.67 20 -157.34 20 -157 20 C-157 19.67 -157 19.34 -157 19 C-151.40348216 18.32114048 -145.80654238 17.64589752 -140.20922852 16.97363281 C-138.31556157 16.74572245 -136.42200186 16.51691884 -134.52856445 16.28710938 C-121.03567055 14.65030181 -107.53639727 13.22671702 -94 12 C-93.67 11.01 -93.34 10.02 -93 9 C-89.06768872 8.42763997 -85.13498705 7.85805073 -81.2019043 7.29101562 C-79.86422917 7.09776526 -78.52666276 6.90376078 -77.18920898 6.70898438 C-75.26575068 6.42900084 -73.34186448 6.15196185 -71.41796875 5.875 C-70.26063232 5.70742188 -69.1032959 5.53984375 -67.91088867 5.3671875 C-65 5 -65 5 -62 5 C-62 5.66 -62 6.32 -62 7 C-60.35333797 6.8864371 -58.70763918 6.75882619 -57.0625 6.625 C-55.68771484 6.52058594 -55.68771484 6.52058594 -54.28515625 6.4140625 C-53.15400391 6.20910156 -53.15400391 6.20910156 -52 6 C-51.67 5.34 -51.34 4.68 -51 4 C-47.04 4 -43.08 4 -39 4 C-39 3.67 -39 3.34 -39 3 C-26.0163415 0.55070179 -13.19860568 -0.19732135 0 0 Z M-52.125 8 C-53.176875 8.09539063 -54.22875 8.19078125 -55.3125 8.2890625 C-57.87539348 8.52205282 -60.43784031 8.75909676 -63 9 C-64.34146494 12.43438215 -65.67175905 15.87298417 -67 19.3125 C-67.3815625 20.28896484 -67.763125 21.26542969 -68.15625 22.27148438 C-68.69765625 23.67817383 -68.69765625 23.67817383 -69.25 25.11328125 C-69.58515625 25.97735596 -69.9203125 26.84143066 -70.265625 27.73168945 C-71.15400692 30.07831974 -71.15400692 30.07831974 -71 33 C-54.5 33 -38 33 -21 33 C-22.37031902 26.83356443 -23.80801277 21.31449262 -26.0625 15.5 C-26.33126953 14.78585937 -26.60003906 14.07171875 -26.87695312 13.3359375 C-28.00055587 9.90953383 -28.00055587 9.90953383 -30 7 C-37.36724959 6.47362966 -44.79543719 7.30993938 -52.125 8 Z " fill="#211E1F" transform="translate(743,529)"/>
<path d="M0 0 C12.87 0 25.74 0 39 0 C50.3671875 17.05078125 50.3671875 17.05078125 54.9375 24.375 C58.70873873 30.38165415 62.51046627 36.36542773 66.375 42.3125 C70.51438293 48.68619194 74.61165629 55.08549202 78.6875 61.5 C83.802466 69.54810251 88.92543471 77.59098104 94.0625 85.625 C94.66215576 86.56408203 95.26181152 87.50316406 95.87963867 88.47070312 C102.19952971 98.34945717 108.6081057 108.16631647 115 118 C115.33 79.06 115.66 40.12 116 0 C126.23 0 136.46 0 147 0 C147 57.42 147 114.84 147 174 C136.44 174 125.88 174 115 174 C104.8728839 162.19667158 104.8728839 162.19667158 102.3828125 156.79296875 C99.18203259 150.22623749 95.39840293 144.29374219 91.3125 138.25 C90.06493104 136.34120169 88.82138435 134.42976794 87.58203125 132.515625 C86.68218506 131.13020508 86.68218506 131.13020508 85.76416016 129.71679688 C85.1819873 128.82025391 84.59981445 127.92371094 84 127 C82.8998298 125.30723303 81.79957205 123.61452295 80.69921875 121.921875 C79.10221764 119.46508092 77.50533446 117.00821083 75.90893555 114.55102539 C71.82065934 108.25902459 67.72441639 101.97224756 63.625 95.6875 C63.00286621 94.73367432 62.38073242 93.77984863 61.73974609 92.79711914 C58.50472915 87.83795398 55.26853315 82.87956109 52.03125 77.921875 C51.37688965 76.91938721 50.7225293 75.91689941 50.04833984 74.8840332 C48.81990901 73.00209213 47.59110538 71.12039432 46.36181641 69.23901367 C41.53833139 61.84849745 36.77273866 54.42426014 32 47 C31.67 88.91 31.34 130.82 31 174 C20.77 174 10.54 174 0 174 C0 116.58 0 59.16 0 0 Z " fill="#221F1F" transform="translate(742,687)"/>
<path d="M0 0 C12.87 0 25.74 0 39 0 C50.36259191 17.04388787 50.36259191 17.04388787 54.625 23.875 C61.32265406 34.53959023 68.11791683 45.14085046 74.91357422 55.74316406 C77.00801216 59.01250669 79.10010388 62.28333838 81.19140625 65.5546875 C88.75969836 77.39256978 96.35563201 89.21109515 104 101 C107.63 106.61 111.26 112.22 115 118 C115.33 79.06 115.66 40.12 116 0 C126.23 0 136.46 0 147 0 C147 57.42 147 114.84 147 174 C136.44 174 125.88 174 115 174 C104.87166498 162.19525091 104.87166498 162.19525091 102.375 156.78125 C99.20828824 150.285431 95.47989672 144.41583104 91.4375 138.4375 C90.19525115 136.5364409 88.95696597 134.63278584 87.72265625 132.7265625 C83.94740262 126.91710403 80.16152581 121.11461515 76.375 115.3125 C71.21606253 107.40390548 66.06569236 99.48979779 60.92236328 91.57104492 C58.01017517 87.08859427 55.09362976 82.60903438 52.171875 78.1328125 C51.51896484 77.1325 50.86605469 76.1321875 50.19335938 75.1015625 C48.95030706 73.19763111 47.70685598 71.29395997 46.46289062 69.390625 C41.60492002 61.9500041 36.80564449 54.47544698 32 47 C31.67 88.91 31.34 130.82 31 174 C20.77 174 10.54 174 0 174 C0 116.58 0 59.16 0 0 Z " fill="#221F1F" transform="translate(1478,687)"/>
<path d="M0 0 C12.87 0 25.74 0 39 0 C47.2860369 8.8430814 47.2860369 8.8430814 48.69921875 13.20703125 C51.15869707 19.80439279 54.85485055 25.29301068 58.75 31.125 C60.12416581 33.26021208 61.49392611 35.39826554 62.859375 37.5390625 C63.54451172 38.60801758 64.22964844 39.67697266 64.93554688 40.77832031 C68.29272922 46.01736694 71.64621158 51.25878038 75 56.5 C76.33331485 58.58334516 77.6666482 60.66667848 79 62.75 C91 81.5 103 100.25 115 119 C115.33 79.73 115.66 40.46 116 0 C125.9 0 135.8 0 146 0 C146 57.42 146 114.84 146 174 C135.44 174 124.88 174 114 174 C106.36147464 165.31985755 106.36147464 165.31985755 104.703125 160.9609375 C101.92747264 154.4572893 98.08621914 148.85114586 94.08416748 143.06765747 C92.09579939 140.18145753 90.15348429 137.26481138 88.2109375 134.34765625 C87.48229492 133.25469238 86.75365234 132.16172852 86.00292969 131.03564453 C83.02933223 126.52885385 80.1683781 121.9582696 77.33666992 117.36157227 C74.31586632 112.46704783 71.15554295 107.67899991 67.94799805 102.90527344 C64.52186423 97.80069678 61.15800586 92.6577391 57.8125 87.5 C57.27657227 86.67387207 56.74064453 85.84774414 56.18847656 84.99658203 C55.06147371 83.25914684 53.93452206 81.52167843 52.80761719 79.78417969 C49.5241561 74.72683363 46.23092719 69.67585942 42.9375 64.625 C42.30626221 63.65626953 41.67502441 62.68753906 41.0246582 61.68945312 C40.42741943 60.77357422 39.83018066 59.85769531 39.21484375 58.9140625 C38.69011475 58.1092041 38.16538574 57.3043457 37.62475586 56.47509766 C35.76410592 53.640647 33.88076325 50.82114487 32 48 C31.67 89.58 31.34 131.16 31 174 C20.77 174 10.54 174 0 174 C0 116.58 0 59.16 0 0 Z " fill="#221F1F" transform="translate(181,231)"/>
<path d="M0 0 C12.38572707 9.62171348 24.08815813 23.20420972 27 39 C23.19295001 40.42830852 19.38433843 41.85236055 15.57421875 43.27246094 C14.27788194 43.75631411 12.9819803 44.24133485 11.68652344 44.72753906 C9.82601495 45.42558589 7.96381135 46.11910947 6.1015625 46.8125 C4.98088379 47.23144531 3.86020508 47.65039062 2.70556641 48.08203125 C-0 49 -0 49 -2 49 C-2.40089844 48.10539062 -2.80179688 47.21078125 -3.21484375 46.2890625 C-9.39202805 32.96003039 -17.60217 22.84899832 -31.48828125 16.94140625 C-45.57883607 11.99195086 -61.6930858 12.40564438 -75.3125 18.4765625 C-90.52795422 26.18995249 -99.25969877 36.72260446 -105 52.75390625 C-110.3874432 70.24205196 -109.68104212 91.03367221 -101.375 107.546875 C-93.45739365 121.67260451 -83.47833836 130.45076441 -68.05712891 135.65576172 C-54.45384897 139.46332147 -37.78113403 138.2042477 -25.3203125 131.57421875 C-21.0486502 128.86416414 -17.35113793 125.80399441 -14 122 C-13.50757813 121.44957031 -13.01515625 120.89914063 -12.5078125 120.33203125 C-7.48866667 114.27659411 -6.73685918 110.21057753 -4 102 C-22.48 101.67 -40.96 101.34 -60 101 C-60 92.09 -60 83.18 -60 74 C-31.95 74 -3.9 74 25 74 C25 103.37 25 132.74 25 163 C17.08 163 9.16 163 1 163 C0.51171875 159.80989583 0.0234375 156.61979167 -0.46484375 153.4296875 C-0.95589266 150.28267331 -1.47018719 147.14069217 -2 144 C-2.58265625 144.64066406 -3.1653125 145.28132812 -3.765625 145.94140625 C-15.7661724 158.60236113 -30.48106594 165.59584662 -48.01953125 166.23828125 C-73.8646758 166.73457241 -96.09083387 160.19115956 -115.3125 142.1875 C-133.06749324 123.25390977 -140.71952043 97.89162397 -140.18359375 72.26171875 C-138.73269435 46.48510183 -130.17153739 24.28489878 -111.25 6.3125 C-80.62514958 -20.18795106 -33.42205069 -23.21584124 0 0 Z " fill="#221F1F" transform="translate(244,15)"/>
<path d="M0 0 C18.52880307 15.48599963 29.36640396 35.77085968 32.40136719 59.72900391 C32.67850096 63.83829638 32.73602818 67.92373417 32.71386719 72.04150391 C32.70649536 73.67889526 32.70649536 73.67889526 32.69897461 75.34936523 C32.34325717 99.95953954 23.41087766 122.1394342 5.85351562 139.33496094 C-12.70274023 157.14871698 -36.43162471 163.2158331 -61.52832031 162.93994141 C-84.74569461 162.36004399 -106.22151944 151.82328991 -122.25097656 135.21337891 C-140.23473697 115.40517904 -145.6903278 89.72574065 -144.59863281 63.72900391 C-142.75314569 39.10493289 -132.06826474 17.03687198 -113.31347656 0.85400391 C-80.90983467 -24.50942226 -32.65434531 -25.96190007 0 0 Z M-96.48535156 26.47900391 C-109.26873236 40.08940565 -114.05689242 56.68224725 -113.80175781 75.11572266 C-112.81553651 92.65908243 -106.88694128 108.72952803 -93.59863281 120.72900391 C-79.75365188 132.49029205 -64.08673974 134.75258701 -46.59863281 133.72900391 C-31.53811553 131.60577686 -19.31149218 122.82959848 -9.78613281 111.35400391 C1.26419317 96.32556057 3.41742456 77.54497396 1.10839844 59.43066406 C-1.48357751 44.08435483 -8.84690366 30.17578467 -21.53613281 20.97900391 C-45.39899509 5.14241356 -75.47372992 6.12077148 -96.48535156 26.47900391 Z " fill="#221F1F" transform="translate(556.5986328125,18.27099609375)"/>
<path d="M0 0 C16.66022692 15.16946588 27.17045032 35.91718076 28.72363281 58.48632812 C29.60806714 84.32498288 26.46155984 107.82617681 9.50244141 128.2722168 C8.80248047 129.13459961 8.10251953 129.99698242 7.38134766 130.88549805 C-7.45614785 148.31492682 -29.9495959 158.14505051 -52.49755859 160.2722168 C-75.82292904 161.54450973 -99.85908357 155.57168033 -117.6875 139.93823242 C-137.29675121 122.00522842 -147.23825056 99.79977664 -148.65771484 73.2800293 C-149.36816402 46.53007337 -140.71575101 22.30310471 -122.37255859 2.6472168 C-89.36290339 -28.92972767 -34.3249582 -29.94008165 0 0 Z M-101.49755859 24.2722168 C-113.70461275 39.31379031 -118.90996484 57.11906368 -117.22021484 76.4440918 C-115.12900443 94.36875247 -108.23638964 108.49930401 -94.49755859 120.2722168 C-82.50833701 129.12609918 -68.20968883 132.37407465 -53.49755859 131.2722168 C-36.73495094 128.73305332 -22.90367662 121.20960672 -12.68505859 107.4597168 C-2.2583191 91.59828526 0.02656658 72.18646639 -3.18505859 53.67456055 C-6.40558896 38.41398214 -14.557131 25.55495618 -27.41552734 16.5769043 C-49.95839078 2.45060713 -82.97053375 3.22582665 -101.49755859 24.2722168 Z " fill="#221F1F" transform="translate(1424.49755859375,704.727783203125)"/>
<path d="M0 0 C86.56514085 0 86.56514085 0 102.29296875 15.21875 C111.86964884 26.286733 114.7942521 39.35096924 113.8125 53.75 C112.25447517 63.87716137 107.09868114 73.66922223 99 80 C96.39822805 81.7924334 93.75199602 83.44887497 91 85 C91.7734375 85.3403125 92.546875 85.680625 93.34375 86.03125 C106.49023388 92.14892072 112.44001261 99.66580058 117.8125 113.01953125 C121.63988083 125.21930765 118.98018394 138.48313223 113.71484375 149.75 C107.17545186 161.69941804 96.17972599 168.30450283 83.67578125 172.84375 C59.61473748 179.48127932 12.38407878 175 0 175 C0 117.25 0 59.5 0 0 Z M30 26 C30 41.84 30 57.68 30 74 C37.1465625 74.061875 37.1465625 74.061875 44.4375 74.125 C46.66391235 74.15231201 46.66391235 74.15231201 48.93530273 74.18017578 C59.89951267 74.22598004 69.60950903 73.82246934 78 66 C82.44599142 60.17564761 83.82601177 54.22124713 83.48046875 46.96484375 C82.46730166 40.71286147 79.88989221 35.14094064 74.9375 31.0625 C65.39087543 25.50112506 54.46451083 25.60418277 43.75 25.8125 C39.2125 25.874375 34.675 25.93625 30 26 Z M30 99 C30 115.5 30 132 30 149 C37.79625 149.0928125 37.79625 149.0928125 45.75 149.1875 C47.36358398 149.21481201 48.97716797 149.24212402 50.63964844 149.27026367 C61.37949981 149.33169087 72.69909931 149.16303044 81.30859375 141.84765625 C86.09010836 136.62443128 88.28059491 131.05124103 88.625 124 C88.30878353 117.17499453 86.09162916 111.53329047 81.578125 106.375 C74.22205134 99.73080443 65.43144396 98.83357901 55.9765625 98.90234375 C55.31422607 98.90335083 54.65188965 98.90435791 53.96948242 98.90539551 C51.52130372 98.91058411 49.07314992 98.92454501 46.625 98.9375 C41.13875 98.958125 35.6525 98.97875 30 99 Z " fill="#221F1F" transform="translate(614,3)"/>
<path d="M0 0 C11.55 0 23.1 0 35 0 C40.63909774 13.53383459 40.63909774 13.53383459 43.1015625 19.76171875 C43.51236809 20.80025497 43.51236809 20.80025497 43.93147278 21.85977173 C44.8307543 24.13511599 45.72804487 26.41123774 46.625 28.6875 C46.94236115 29.49190521 47.25972229 30.29631042 47.58670044 31.12509155 C54.48954128 48.62680424 61.28494274 66.1699662 68.07803345 83.7144928 C72.82820989 95.98238938 77.59286541 108.24452558 82.375 120.5 C82.69910858 121.33110291 83.02321716 122.16220581 83.35714722 123.01849365 C86.84361982 131.95734073 90.34647633 140.88934668 93.8828125 149.80859375 C94.19149261 150.5880838 94.50017273 151.36757385 94.81820679 152.17068481 C96.27212785 155.84208652 97.72911904 159.51219391 99.19287109 163.1796875 C99.70163656 164.46218438 100.21027103 165.74473325 100.71875 167.02734375 C101.16154297 168.13843506 101.60433594 169.24952637 102.06054688 170.39428711 C103 173 103 173 103 175 C92.11 175 81.22 175 70 175 C67.44274512 169.24617653 64.9877545 163.55916558 62.765625 157.68359375 C62.51409668 157.02427856 62.26256836 156.36496338 62.00341797 155.68566895 C61.08290424 153.27064298 60.16668742 150.85398094 59.25 148.4375 C57.1875 143.013125 55.125 137.58875 53 132 C29.24 132 5.48 132 -19 132 C-23.89277244 145.40260442 -23.89277244 145.40260442 -28.78295898 158.80615234 C-29.3955766 160.48278173 -30.00828213 162.15937901 -30.62109375 163.8359375 C-30.93985474 164.71096924 -31.25861572 165.58600098 -31.58703613 166.48754883 C-31.8914563 167.31971924 -32.19587646 168.15188965 -32.50952148 169.00927734 C-32.77377426 169.73319672 -33.03802704 170.45711609 -33.31028748 171.20297241 C-34 173 -34 173 -35 175 C-45.56 175 -56.12 175 -67 175 C-66.31974249 170.91845497 -65.84739216 168.18178055 -64.38037109 164.53149414 C-64.04787857 163.69529541 -63.71538605 162.85909668 -63.37281799 161.99755859 C-63.01002243 161.10246582 -62.64722687 160.20737305 -62.2734375 159.28515625 C-61.89400497 158.33455322 -61.51457245 157.3839502 -61.12364197 156.40454102 C-60.30594161 154.35723935 -59.48563554 152.31097689 -58.66299438 150.26565552 C-56.47230987 144.81757029 -54.30161247 139.36152414 -52.12890625 133.90625 C-51.47087257 132.25605614 -51.47087257 132.25605614 -50.79954529 130.57252502 C-46.89361108 120.76497127 -43.08336767 110.92263204 -39.3125 101.0625 C-38.09950613 97.89432125 -36.88590315 94.72637631 -35.671875 91.55859375 C-35.37250534 90.77733627 -35.07313568 89.9960788 -34.76469421 89.19114685 C-31.2342289 79.98805178 -27.65010376 70.80594019 -24.0625 61.625 C-23.57240952 60.37073212 -23.57240952 60.37073212 -23.07241821 59.09112549 C-21.7480484 55.70218969 -20.42337034 52.31337465 -19.09822083 48.92474365 C-15.42219479 39.5244861 -11.75357718 30.12134005 -8.08493042 20.71820068 C-6.3693597 16.32115494 -4.65341812 11.92425393 -2.9375 7.52734375 C-1.968125 5.04332031 -0.99875 2.55929687 0 0 Z M16 36 C13.31012451 43.25783076 10.62361566 50.51689816 7.94125652 57.77750969 C6.69528153 61.14979978 5.44820291 64.52167263 4.19848633 67.89257812 C2.9897749 71.15300923 1.78411381 74.41455399 0.58045387 77.67685318 C-0.09707752 79.5108265 -0.77766578 81.3436696 -1.45832825 83.17648315 C-1.87853745 84.31691071 -2.29874664 85.45733826 -2.73168945 86.63232422 C-3.28129082 88.11791336 -3.28129082 88.11791336 -3.84199524 89.6335144 C-5.35975695 94.04586494 -6.65920761 98.53069204 -8 103 C8.5 103 25 103 42 103 C41.3110212 98.86612723 40.74025923 95.8934763 39.31347656 92.11889648 C38.96931702 91.20031357 38.62515747 90.28173065 38.27056885 89.33531189 C37.89768738 88.3571199 37.52480591 87.37892792 37.140625 86.37109375 C36.75436951 85.34500504 36.36811401 84.31891632 35.97015381 83.26173401 C34.73523838 79.98502398 33.49269588 76.71126611 32.25 73.4375 C31.42919318 71.26255628 30.60887572 69.08742781 29.7890625 66.91210938 C25.89653385 56.59384255 21.98250519 46.28392143 18 36 C17.34 36 16.68 36 16 36 Z " fill="#221F1F" transform="translate(802,3)"/>
<path d="M0 0 C11.88 0 23.76 0 36 0 C36.93457031 2.475 37.86914062 4.95 38.83203125 7.5 C46.25787381 27.12345814 53.81053255 46.69044299 61.5625 66.1875 C67.96556155 82.29358828 74.28400894 98.42734651 80.47729492 114.61523438 C83.77036858 123.21930956 87.08991919 131.81215695 90.44921875 140.390625 C91.00548195 141.81170311 91.00548195 141.81170311 91.57298279 143.26148987 C93.37419561 147.8611675 95.17862576 152.45955371 96.98706055 157.05639648 C97.63467327 158.70814297 98.28221916 160.35991566 98.9296875 162.01171875 C99.22683151 162.76394714 99.52397552 163.51617554 99.8301239 164.29119873 C101.09451989 167.52237319 102.15652383 170.6260953 103 174 C91.78 174 80.56 174 69 174 C66.85918773 168.35997911 64.72141123 162.71899864 62.59130859 157.07495117 C61.86554549 155.15468266 61.13801451 153.23508135 60.40869141 151.31616211 C59.36156787 148.56016146 58.32079513 145.80183536 57.28125 143.04296875 C56.95314331 142.18350143 56.62503662 141.32403412 56.2869873 140.43852234 C55.98667603 139.63791885 55.68636475 138.83731537 55.37695312 138.01245117 C55.11047974 137.3085173 54.84400635 136.60458344 54.56945801 135.87931824 C54 134 54 134 54 131 C29.91 131.33 5.82 131.66 -19 132 C-23.89452613 145.44701257 -23.89452613 145.44701257 -28.78295898 158.89624023 C-29.39544876 160.57543899 -30.00814596 162.25456212 -30.62109375 163.93359375 C-30.93985474 164.81374146 -31.25861572 165.69388916 -31.58703613 166.60070801 C-31.8914563 167.43299927 -32.19587646 168.26529053 -32.50952148 169.12280273 C-32.77377426 169.84894272 -33.03802704 170.5750827 -33.31028748 171.32322693 C-34 173 -34 173 -35 174 C-37.3756852 174.0883967 -39.72208674 174.11530305 -42.09765625 174.09765625 C-43.16094398 174.09553383 -43.16094398 174.09553383 -44.24571228 174.09336853 C-46.51801712 174.08775443 -48.79022475 174.07519963 -51.0625 174.0625 C-52.59960796 174.05748681 -54.13671745 174.05292359 -55.67382812 174.04882812 C-59.44925642 174.03778042 -63.22461171 174.02050641 -67 174 C-64.68944297 165.25426657 -61.34136843 156.9275397 -58.02374268 148.52920532 C-56.60063172 144.9264599 -55.18642069 141.32024007 -53.77163696 137.71421814 C-53.01585861 135.78799468 -52.25964552 133.86194175 -51.50302124 131.93605042 C-47.57436253 121.93160563 -43.69317406 111.90892476 -39.81420898 101.88513184 C-26.65320447 67.88024118 -13.34452586 33.9332229 0 0 Z M17 35 C13.61407773 42.98697253 10.41884442 51.02341943 7.390625 59.15234375 C6.97834656 60.2555043 6.56606812 61.35866486 6.14129639 62.49525452 C5.27969899 64.80311637 4.41929815 67.11142528 3.56005859 69.42016602 C2.24373327 72.95432534 0.92086953 76.4859928 -0.40234375 80.01757812 C-1.24258413 82.27068546 -2.08244164 84.52393562 -2.921875 86.77734375 C-3.51400787 88.35551125 -3.51400787 88.35551125 -4.11810303 89.96556091 C-4.48228333 90.94750931 -4.84646362 91.9294577 -5.22167969 92.94116211 C-5.54191101 93.79987411 -5.86214233 94.65858612 -6.19207764 95.5433197 C-7.18096504 98.38465094 -7.18096504 98.38465094 -8 103 C8.83 103 25.66 103 43 103 C37.85861177 88.21850885 32.65328471 73.50885808 27.125 58.875 C26.45548063 57.09514555 25.78620949 55.31519771 25.1171875 53.53515625 C21.63701578 44.23719273 21.63701578 44.23719273 18 35 C17.67 35 17.34 35 17 35 Z " fill="#221F1F" transform="translate(973,687)"/>
<path d="M0 0 C3.54473058 2.80514447 6.79948298 5.81059589 10 9 C10.5775 9.55429688 11.155 10.10859375 11.75 10.6796875 C18.26139465 17.49630377 22.00543489 26.73299335 23 36 C19.08663207 37.34315504 15.16880718 38.67280672 11.25 40 C10.13882813 40.3815625 9.02765625 40.763125 7.8828125 41.15625 C6.81289063 41.5171875 5.74296875 41.878125 4.640625 42.25 C3.65610352 42.58515625 2.67158203 42.9203125 1.65722656 43.265625 C-1 44 -1 44 -5 44 C-5.1959375 43.31035156 -5.391875 42.62070312 -5.59375 41.91015625 C-8.41678408 33.03950174 -12.78401145 25.90673658 -21.25 21.5 C-29.48381612 17.82540438 -40.08404396 17.64731584 -48.8359375 19.6484375 C-55.56052965 22.40905954 -61.25272364 27.10607353 -65 33.3125 C-66.67427346 39.48638337 -67.0733415 45.26841064 -64.5 51.25 C-61.15684439 56.92878486 -56.97609196 60.01508068 -50.73046875 62.08203125 C-46.50595815 63.17405201 -42.27246348 64.11784508 -38 65 C-5.15006294 71.79693798 -5.15006294 71.79693798 8 82 C8.886875 82.598125 9.77375 83.19625 10.6875 83.8125 C20.51313863 93.10702303 24.8380352 105.35630031 25.25 118.625 C25.09263987 132.75244306 20.053429 144.51107874 10.37890625 154.6796875 C-3.73143935 168.44248764 -20.9935254 172.50443947 -40.23974609 172.35351562 C-55.94725597 171.95492012 -70.36543242 167.50647348 -83 158 C-83.61488281 157.55011719 -84.22976563 157.10023438 -84.86328125 156.63671875 C-94.91921883 148.72129117 -101.22817798 136.31920897 -104 124 C-104.1875 120.375 -104.1875 120.375 -104 118 C-98.45230928 115.85757357 -92.89479773 113.97985706 -87.1875 112.3125 C-86.43791016 112.08755859 -85.68832031 111.86261719 -84.91601562 111.63085938 C-81.85288775 110.73026146 -79.21006657 110 -76 110 C-75.76925781 110.845625 -75.53851563 111.69125 -75.30078125 112.5625 C-71.89433714 124.41100124 -67.30788094 133.33693511 -56.4375 139.86328125 C-45.77745754 144.83455105 -34.17398719 145.20521661 -23 142 C-20.82307038 141.06808258 -18.76258899 140.04819641 -16.69140625 138.90234375 C-15 138 -15 138 -12 137 C-10.89831016 135.30230766 -10.89831016 135.30230766 -10 133 C-9.46375 131.948125 -8.9275 130.89625 -8.375 129.8125 C-6.30684865 124.84893675 -5.91125219 119.81995491 -7.8671875 114.75390625 C-8.55145224 113.39286871 -9.26890972 112.04770565 -10.02734375 110.7265625 C-11 109 -11 109 -12 106 C-13.77654357 104.88405884 -13.77654357 104.88405884 -16 104 C-16.80953125 103.61521484 -17.6190625 103.23042969 -18.453125 102.83398438 C-26.76826887 99.14675228 -35.13265066 97.23229409 -44 95.5 C-57.61221391 92.8407659 -69.66330145 89.33235608 -81 81 C-81.86625 80.4225 -82.7325 79.845 -83.625 79.25 C-92.89023024 70.47241345 -97.01797924 59.95257345 -97.52148438 47.37524414 C-97.76115808 31.30426603 -93.50182309 20.13945982 -82.5 8.3125 C-81.2625 7.1678125 -81.2625 7.1678125 -80 6 C-79.55914062 5.54238281 -79.11828125 5.08476562 -78.6640625 4.61328125 C-74.80813637 0.88458111 -70.44264895 -1.46606868 -65.625 -3.75 C-65.01285645 -4.04374512 -64.40071289 -4.33749023 -63.77001953 -4.64013672 C-44.75065531 -13.29167072 -17.45481349 -11.51026933 0 0 Z " fill="#221F1F" transform="translate(455,237)"/>
<path d="M0 0 C9.9 0 19.8 0 30 0 C30.01458252 3.44066895 30.02916504 6.88133789 30.04418945 10.42626953 C30.09467685 21.8336642 30.16114958 33.24093523 30.23571491 44.64819527 C30.2805086 51.5598815 30.31996012 58.47151809 30.34643555 65.38330078 C30.37203313 72.06186388 30.41304668 78.74017447 30.46318626 85.4186058 C30.47978541 87.9580596 30.49134273 90.49755185 30.49761391 93.03705215 C29.6682202 117.61277589 29.6682202 117.61277589 40 139 C47.89580918 146.56265267 56.25782413 148.49261625 66.97436523 148.42407227 C75.80499316 148.11570113 84.57891639 145.28661066 91 139 C98.44391945 130.09170295 99.44719014 118.91267761 99.43237305 107.7355957 C99.4425647 106.56356094 99.45275635 105.39152618 99.46325684 104.18397522 C99.49321421 100.34786084 99.50262657 96.51199689 99.51171875 92.67578125 C99.52857824 90.00105553 99.54658681 87.3263621 99.56611633 84.6516571 C99.60959113 78.35509057 99.6382543 72.05854953 99.66143972 65.76187915 C99.68859413 58.58635242 99.73249877 51.41095773 99.77772844 44.23552573 C99.87030185 29.49041828 99.93989651 14.74527881 100 0 C109.9 0 119.8 0 130 0 C130.06790635 16.20384713 130.12309147 32.40757148 130.15543652 48.61152172 C130.17085879 56.136493 130.19185871 63.66136912 130.22631836 71.1862793 C130.25636373 77.7504193 130.27560866 84.31449035 130.28226548 90.87869722 C130.28615232 94.34949275 130.29518807 97.8200911 130.31719017 101.29082298 C130.34164042 105.17983879 130.34196037 109.0686675 130.34057617 112.95776367 C130.351362 114.08921814 130.36214783 115.22067261 130.3732605 116.38641357 C130.30682116 133.75433868 124.88460531 149.04132169 112.66015625 161.59765625 C97.02828543 175.714544 77.71384197 178.92993558 57.40478516 178.15673828 C40.20629808 177.03578105 25.83470894 169.74469459 14.03125 157.359375 C2.27181837 143.70034287 -0.17030902 126.40001053 -0.11352539 108.984375 C-0.11367142 107.80302475 -0.11381744 106.6216745 -0.1139679 105.40452576 C-0.11327408 101.51966483 -0.10550656 97.6348525 -0.09765625 93.75 C-0.09523268 91.04858426 -0.09431794 88.34716856 -0.09336853 85.64575195 C-0.09026908 79.27467756 -0.08207448 72.90362047 -0.07201904 66.53255367 C-0.06081473 59.27495121 -0.0553366 52.01734789 -0.05032361 44.75973892 C-0.03989062 29.83981475 -0.02156249 14.91991302 0 0 Z " fill="#221F1F" transform="translate(855,231)"/>
<path d="M0 0 C35.64 0 71.28 0 108 0 C108 9.57 108 19.14 108 29 C82.26 29 56.52 29 30 29 C30 43.85 30 58.7 30 74 C53.1 74 76.2 74 100 74 C100 82.91 100 91.82 100 101 C76.9 101 53.8 101 30 101 C30 115.85 30 130.7 30 146 C55.74 146 81.48 146 108 146 C108 155.24 108 164.48 108 174 C72.36 174 36.72 174 0 174 C0 116.58 0 59.16 0 0 Z " fill="#221F1F" transform="translate(1163,231)"/>
<path d="M0 0 C35.64 0 71.28 0 108 0 C108 9.24 108 18.48 108 28 C82.26 28 56.52 28 30 28 C30 42.85 30 57.7 30 73 C53.1 73 76.2 73 100 73 C100 82.24 100 91.48 100 101 C76.9 101 53.8 101 30 101 C30 115.85 30 130.7 30 146 C55.74 146 81.48 146 108 146 C108 155.24 108 164.48 108 174 C72.36 174 36.72 174 0 174 C0 116.58 0 59.16 0 0 Z " fill="#221F1F" transform="translate(115,687)"/>
<path d="M0 0 C47.19 0 94.38 0 143 0 C143 9.57 143 19.14 143 29 C124.52 29 106.04 29 87 29 C87 76.85 87 124.7 87 174 C76.77 174 66.54 174 56 174 C56 126.15 56 78.3 56 29 C37.52 29 19.04 29 0 29 C0 19.43 0 9.86 0 0 Z " fill="#221F1F" transform="translate(486,231)"/>
<path d="M0 0 C47.19 0 94.38 0 143 0 C143 9.57 143 19.14 143 29 C124.19 29 105.38 29 86 29 C86 76.85 86 124.7 86 174 C76.1 174 66.2 174 56 174 C56 126.15 56 78.3 56 29 C37.52 29 19.04 29 0 29 C0 19.43 0 9.86 0 0 Z " fill="#221F1F" transform="translate(1002,231)"/>
<path d="M0 0 C47.19 0 94.38 0 143 0 C143 9.57 143 19.14 143 29 C124.19 29 105.38 29 86 29 C86 76.85 86 124.7 86 174 C76.1 174 66.2 174 56 174 C56 126.15 56 78.3 56 29 C37.52 29 19.04 29 0 29 C0 19.43 0 9.86 0 0 Z " fill="#221F1F" transform="translate(696,231)"/>
<path d="M0 0 C46.86 0 93.72 0 142 0 C142 9.57 142 19.14 142 29 C123.52 29 105.04 29 86 29 C86 76.85 86 124.7 86 174 C76.1 174 66.2 174 56 174 C56 126.15 56 78.3 56 29 C37.52 29 19.04 29 0 29 C0 19.43 0 9.86 0 0 Z " fill="#221F1F" transform="translate(1060,687)"/>
<path d="M0 0 C1.28648437 -0.02578125 2.57296875 -0.0515625 3.8984375 -0.078125 C7.39025892 0.22933097 9.90433927 1.07084033 13.11572266 2.38964844 C16.37421636 3.50688251 19.68858281 4.17054971 23.0625 4.828125 C23.74542618 4.96175949 24.42835236 5.09539398 25.13197327 5.233078 C26.56115542 5.51164296 27.99046448 5.78955757 29.41989136 6.06686401 C50.08678419 10.12633521 68.33011598 15.06422403 80.93359375 33.37109375 C87.78529096 45.03322041 89.44287025 58.29537248 86.4375 71.4375 C82.28081602 86.01462677 73.35797835 96.96815648 60.2890625 104.6171875 C42.10371145 114.31221693 20.20883627 114.41565173 0.625 109.25 C-7.6654486 106.58102303 -14.5128695 102.56606991 -21.375 97.25 C-22.21160156 96.62351562 -23.04820312 95.99703125 -23.91015625 95.3515625 C-32.84495664 87.73361858 -38.96456646 75.64477676 -41.375 64.25 C-41.40207272 61.91682373 -41.40540816 59.58313518 -41.375 57.25 C-37.27261656 56.07699911 -33.16781741 54.91268694 -29.0625 53.75 C-27.89525391 53.41613281 -26.72800781 53.08226562 -25.52539062 52.73828125 C-24.40712891 52.42246094 -23.28886719 52.10664062 -22.13671875 51.78125 C-21.10506592 51.48798828 -20.07341309 51.19472656 -19.01049805 50.89257812 C-16.375 50.25 -16.375 50.25 -13.375 50.25 C-13.15585937 51.08402344 -12.93671875 51.91804687 -12.7109375 52.77734375 C-9.48966699 64.2089257 -4.84923192 73.29306511 5.6484375 79.43359375 C17.24443914 85.14786893 29.8858096 85.28500352 42.14453125 81.46484375 C48.03223554 78.86434721 51.82212316 74.36406 55 68.875 C56.73733108 61.57820947 55.82146806 56.04236391 52.15234375 49.4765625 C44.26722634 37.9816343 25.57897723 37.04662795 12.99804688 34.62695312 C-2.96122486 31.38922359 -18.608666 24.86180034 -27.984375 10.84375 C-31.375 4.97682584 -31.375 4.97682584 -31.375 1.25 C-20.92445981 0.70173669 -10.46474272 0.16248487 0 0 Z " fill="#221E1F" transform="translate(827.375,524.75)"/>
<path d="M0 0 C9.9 0 19.8 0 30 0 C30 48.18 30 96.36 30 146 C56.4 146 82.8 146 110 146 C110 155.57 110 165.14 110 175 C73.7 175 37.4 175 0 175 C0 117.25 0 59.5 0 0 Z " fill="#221F1F" transform="translate(922,3)"/>
<path d="M0 0 C9.9 0 19.8 0 30 0 C30 48.18 30 96.36 30 146 C56.4 146 82.8 146 110 146 C110 155.57 110 165.14 110 175 C73.7 175 37.4 175 0 175 C0 117.25 0 59.5 0 0 Z " fill="#221F1F" transform="translate(299,3)"/>
<path d="M0 0 C0 3.3 0 6.6 0 10 C23.1 10 46.2 10 70 10 C70 19.24 70 28.48 70 38 C46.9 38 23.8 38 0 38 C0 52.85 0 67.7 0 83 C25.41 83 50.82 83 77 83 C77 92.24 77 101.48 77 111 C41.36 111 5.72 111 -31 111 C-31 75.36 -31 39.72 -31 3 C-35.62 3 -40.24 3 -45 3 C-45 2.67 -45 2.34 -45 2 C-29.95428606 0.52273445 -15.11785297 -0.28345974 0 0 Z " fill="#221F1F" transform="translate(970,522)"/>
<path d="M0 0 C9.9 0 19.8 0 30 0 C30 47.85 30 95.7 30 145 C56.4 145 82.8 145 110 145 C110 154.57 110 164.14 110 174 C73.7 174 37.4 174 0 174 C0 116.58 0 59.16 0 0 Z " fill="#221F1F" transform="translate(252,687)"/>
<path d="M0 0 C10.37840823 7.99499471 17.04367731 17.46580953 21 30 C21.03437263 31.66631219 21.03953808 33.33380238 21 35 C17.06495351 36.34065238 13.12658354 37.67126071 9.1875 39 C8.06794922 39.3815625 6.94839844 39.763125 5.79492188 40.15625 C4.72177734 40.5171875 3.64863281 40.878125 2.54296875 41.25 C1.55321045 41.58515625 0.56345215 41.9203125 -0.45629883 42.265625 C-3 43 -3 43 -6 43 C-6.29132813 42.21496094 -6.58265625 41.42992187 -6.8828125 40.62109375 C-10.60440309 31.08305497 -14.28508921 24.71065187 -23.58984375 20.00390625 C-32.92047698 16.11740262 -43.39399387 15.85922965 -52.8125 19.6875 C-60.09443482 23.39442697 -64.66738145 27.49702011 -67.40625 35.34765625 C-68.68898795 41.07778169 -67.98900138 46.52642988 -65.4375 51.8125 C-60.75320659 58.70679671 -53.08166791 60.88536998 -45.3125 62.5 C-43.45830156 62.91522271 -41.60413586 63.33059169 -39.75 63.74609375 C-38.80382812 63.95218262 -37.85765625 64.15827148 -36.8828125 64.37060547 C-32.18374149 65.39653747 -27.49731635 66.4736173 -22.8125 67.5625 C-21.5591687 67.8409375 -21.5591687 67.8409375 -20.28051758 68.125 C-14.25837753 69.51809651 -8.6785733 71.56740062 -3 74 C-5.73802364 76.73802364 -7.2815099 76.23081509 -11.125 76.3125 C-19.48698516 76.64052439 -27.47050532 78.41390524 -35.60986328 80.27270508 C-40.87137268 81.45183077 -45.60536096 82.29549287 -51 82 C-51.66 80.35 -52.32 78.7 -53 77 C-60.06121882 76.54169974 -66.51392065 77.49734704 -73.37695312 79.02075195 C-77.22431355 79.83552605 -80.26289814 80.37005628 -84 79 C-92.1455944 72.36627729 -97.75399472 61.40068299 -99 51 C-99.99142012 35.40283704 -97.15427444 21.81185485 -86.75 9.8125 C-64.8756977 -13.1771039 -26.75921261 -18.35616719 0 0 Z " fill="#221E1F" transform="translate(446,466)"/>
<path d="M0 0 C10.23 0 20.46 0 31 0 C31 57.42 31 114.84 31 174 C20.77 174 10.54 174 0 174 C0 116.58 0 59.16 0 0 Z " fill="#221F1F" transform="translate(1220,687)"/>
<path d="M0 0 C10.23 0 20.46 0 31 0 C31 57.42 31 114.84 31 174 C20.77 174 10.54 174 0 174 C0 116.58 0 59.16 0 0 Z " fill="#221F1F" transform="translate(676,687)"/>
<path d="M0 0 C10.23 0 20.46 0 31 0 C31 57.42 31 114.84 31 174 C20.77 174 10.54 174 0 174 C0 116.58 0 59.16 0 0 Z " fill="#221F1F" transform="translate(647,231)"/>
<path d="M0 0 C10.23 0 20.46 0 31 0 C31 57.42 31 114.84 31 174 C20.77 174 10.54 174 0 174 C0 116.58 0 59.16 0 0 Z " fill="#221F1F" transform="translate(115,231)"/>
<path d="M0 0 C9.9 0 19.8 0 30 0 C30 57.42 30 114.84 30 174 C20.1 174 10.2 174 0 174 C0 116.58 0 59.16 0 0 Z " fill="#221F1F" transform="translate(383,687)"/>
<path d="M0 0 C35.64 0 71.28 0 108 0 C108 9.24 108 18.48 108 28 C82.26 28 56.52 28 30 28 C30 41.86 30 55.72 30 70 C26.8298082 71.0567306 24.63409007 71.10036443 21.30859375 71.0625 C19.64473633 71.05089844 19.64473633 71.05089844 17.94726562 71.0390625 C16.78904297 71.02617188 15.63082031 71.01328125 14.4375 71 C12.14457767 70.97456548 9.85160127 70.95350703 7.55859375 70.9375 C6.54079834 70.92589844 5.52300293 70.91429687 4.47436523 70.90234375 C1.99675567 70.83012523 1.99675567 70.83012523 0 72 C0 48.24 0 24.48 0 0 Z " fill="#221E1F" transform="translate(494,459)"/>
<path d="M0 0 C11.364375 -0.061875 22.72875 -0.12375 34.4375 -0.1875 C37.98943115 -0.21481201 41.5413623 -0.24212402 45.20092773 -0.27026367 C49.63098145 -0.28381348 49.63098145 -0.28381348 51.72279358 -0.28633118 C53.14457541 -0.29085567 54.5663478 -0.30122891 55.98805237 -0.31672668 C75.81614951 -0.52154225 95.14865092 2.76576728 112 14 C112.99 15.485 112.99 15.485 114 17 C112.47632813 17.74443359 112.47632813 17.74443359 110.921875 18.50390625 C109.53089647 19.18938725 108.14029867 19.87564115 106.75 20.5625 C106.02361328 20.91948975 105.29722656 21.27647949 104.54882812 21.64428711 C100.02211585 23.89818771 95.76557415 26.35003233 91.5 29.0625 C85.71796885 32.49119772 85.71796885 32.49119772 81.875 32.0625 C80.5805771 31.71854336 79.28919709 31.36305326 78 31 C68.31121189 28.3180567 58.34768134 28.55239066 48.375 28.375 C46.58982619 28.33674859 44.80466942 28.2976929 43.01953125 28.2578125 C38.67982855 28.16259552 34.34003981 28.07828492 30 28 C30.04189453 28.94319092 30.08378906 29.88638184 30.12695312 30.8581543 C30.26364019 34.37157407 30.36372202 37.88215775 30.43945312 41.3972168 C30.47959307 42.91557479 30.5341233 44.43362522 30.60351562 45.95092773 C31.16151931 58.46908395 31.16151931 58.46908395 28.54833984 61.91333008 C26.42863095 63.24330672 24.33183352 64.09550695 22 65 C20.28752881 66.00919451 18.59266195 67.04869915 16.9140625 68.11328125 C15.15152838 69.18049173 13.38850173 70.24688919 11.625 71.3125 C10.72394531 71.86228516 9.82289062 72.41207031 8.89453125 72.97851562 C8.03472656 73.49736328 7.17492187 74.01621094 6.2890625 74.55078125 C5.51256348 75.02169189 4.73606445 75.49260254 3.93603516 75.9777832 C2 77 2 77 0 77 C0 51.59 0 26.18 0 0 Z " fill="#221F1F" transform="translate(115,459)"/>
<path d="M0 0 C35.64 0 71.28 0 108 0 C108 9.24 108 18.48 108 28 C82.59 28 57.18 28 31 28 C31 31.96 31 35.92 31 40 C20.77 40 10.54 40 0 40 C0 26.8 0 13.6 0 0 Z " fill="#221E1F" transform="translate(939,459)"/>
<path d="M0 0 C9.29655476 6.80053443 16.62548735 16.89135589 20 28 C20.09765625 30.7578125 20.09765625 30.7578125 20 33 C8.14966304 33.39870293 1.05717075 31.83805806 -9.08203125 25.60546875 C-12.37760634 23.79224069 -15.19616025 23.05260837 -18.87109375 22.4609375 C-21.25038456 21.9457883 -23.08632409 21.04486226 -25.25 19.9375 C-32.70855885 16.45596991 -41.87582644 15.96776821 -49.80859375 18.14453125 C-57.08360084 20.98450728 -62.29018888 24.8629734 -67 31 C-70.35735137 32.11911712 -72.88205386 32.11365586 -76.41796875 32.09765625 C-77.67158203 32.09443359 -78.92519531 32.09121094 -80.21679688 32.08789062 C-81.52712891 32.07951172 -82.83746094 32.07113281 -84.1875 32.0625 C-85.52278481 32.05748317 -86.85807141 32.05292059 -88.19335938 32.04882812 C-91.46228473 32.03702695 -94.73111991 32.02056297 -98 32 C-95.24552166 17.61985865 -87.17077254 7.38081405 -75.19897461 -0.83813477 C-53.66457514 -14.8565945 -21.2330916 -14.34398508 0 0 Z " fill="#221E20" transform="translate(892,466)"/>
<path d="M0 0 C10.23 0 20.46 0 31 0 C31 31.68 31 63.36 31 96 C15.13636364 100.53246753 15.13636364 100.53246753 9.3125 101.75 C8.17425781 101.99234375 7.03601563 102.2346875 5.86328125 102.484375 C3 103 3 103 0 103 C0 69.01 0 35.02 0 0 Z " fill="#221E1F" transform="translate(286,459)"/>
<path d="M0 0 C1.546875 0.8353125 1.546875 0.8353125 3.125 1.6875 C11.24917733 8.22216437 16.72240187 15.7696705 19 26 C19.83328189 39.78330208 19.15381433 50.98791107 9.91796875 61.99609375 C3.11091396 69.10814896 -5.11965898 73.45914845 -15.03125 74.23828125 C-26.39979322 74.48152711 -36.1138954 72.6270589 -44.96484375 65.109375 C-53.22980713 56.54300221 -57.05733974 46.75342952 -57.375 35 C-57.0868844 23.90754928 -53.68541753 14.27315056 -46.1484375 5.95703125 C-34.06919308 -5.32815925 -14.54769578 -8.17062366 0 0 Z M-37.625 19.90234375 C-42.08999128 26.71399238 -41.77982658 34.16153694 -41 42 C-39.00936782 48.62120147 -35.71906651 53.18728899 -30 57 C-23.93387848 59.87503574 -17.12230675 60.14546627 -10.65234375 58.34765625 C-4.85643911 55.74564126 -0.69347775 51.55310804 2.03515625 45.828125 C5.1843533 37.33261669 4.57114884 30.26115548 1 22 C-2.28636144 15.99389117 -6.06946882 13.04661828 -12.5 10.75 C-22.87637222 8.52649167 -30.92306329 11.79880009 -37.625 19.90234375 Z " fill="#221F1F" transform="translate(1460,234)"/>
<path d="M0 0 C38.37142857 0 38.37142857 0 46.375 5.1875 C52.87765904 12.15463468 53.44336609 17.93489445 53.43359375 27.4140625 C52.65358026 33.86498486 49.78713785 37.76950609 45 42 C43.01062951 43.34914152 41.01187346 44.68465101 39 46 C39.38333496 46.70084717 39.76666992 47.40169434 40.16162109 48.1237793 C41.90230721 51.31011552 43.63869287 54.49877561 45.375 57.6875 C45.97828125 58.79029297 46.5815625 59.89308594 47.203125 61.02929688 C47.78320312 62.09599609 48.36328125 63.16269531 48.9609375 64.26171875 C49.49509277 65.24100342 50.02924805 66.22028809 50.57958984 67.22924805 C51.88644189 69.77848557 52.98710347 72.32244861 54 75 C51.26658516 75.21698552 48.55037288 75.37463542 45.8125 75.5 C45.04357422 75.56703125 44.27464844 75.6340625 43.48242188 75.703125 C41.10317378 75.78481592 39.27573608 75.71160441 37 75 C34.63726021 72.67821694 33.38724947 69.98046877 32 67 C31.59773193 66.20029785 31.19546387 65.4005957 30.78100586 64.57666016 C29.09391188 61.21966382 27.43314464 57.85285389 25.83789062 54.45117188 C25.42861328 53.63326172 25.01933594 52.81535156 24.59765625 51.97265625 C24.24195557 51.23281494 23.88625488 50.49297363 23.51977539 49.73071289 C21.709723 47.30133128 21.709723 47.30133128 16 47 C16 56.24 16 65.48 16 75 C10.72 75 5.44 75 0 75 C0 50.25 0 25.5 0 0 Z M16 14 C16 20.27 16 26.54 16 33 C18.35125 33.0825 20.7025 33.165 23.125 33.25 C24.21772217 33.30462402 24.21772217 33.30462402 25.33251953 33.36035156 C30.38684642 33.44534431 33.13672548 32.17046845 37 29 C38.41000664 26.17998673 38.24548451 24.12992745 38 21 C36.68238571 17.94868269 35.80439382 16.4225982 32.84375 14.8671875 C29.34463467 13.80014958 26.33968542 13.80673485 22.6875 13.875 C20.480625 13.91625 18.27375 13.9575 16 14 Z " fill="#221F1F" transform="translate(1487,231)"/>
<path d="M0 0 C11.55 0 23.1 0 35 0 C38.6895145 8.11693189 42.11659907 16.13762691 45.3125 24.4375 C45.76689453 25.59443359 46.22128906 26.75136719 46.68945312 27.94335938 C47.11806641 29.05388672 47.54667969 30.16441406 47.98828125 31.30859375 C48.37540283 32.30689209 48.76252441 33.30519043 49.16137695 34.33374023 C50 37 50 37 50 41 C49.11248047 41.18175781 49.11248047 41.18175781 48.20703125 41.3671875 C47.02173828 41.61855469 47.02173828 41.61855469 45.8125 41.875 C45.03519531 42.03742188 44.25789062 42.19984375 43.45703125 42.3671875 C40.97753988 42.93302545 40.97753988 42.93302545 38.6875 44.03125 C35.2166091 45.28238509 31.83667465 45.45738241 28.1875 45.625 C27.14819336 45.68300781 27.14819336 45.68300781 26.08789062 45.7421875 C24.39232985 45.83573568 22.69620288 45.91892364 21 46 C19.68 42.7 18.36 39.4 17 36 C16.80148437 36.84304688 16.60296875 37.68609375 16.3984375 38.5546875 C15.28965134 42.1518945 14.1731781 44.9163204 12 48 C7.45909333 49.97809359 2.88542395 49.99317996 -2 50 C-3.56510762 50.0284565 -5.1302117 50.05710838 -6.6953125 50.0859375 C-10.80001749 50.13522795 -14.89609522 50.08943134 -19 50 C-16.99456223 43.81435166 -14.8059746 37.72458504 -12.4609375 31.66015625 C-12.13461334 30.81198837 -11.80828918 29.9638205 -11.47207642 29.08995056 C-10.78898146 27.31570198 -10.10491918 25.54182554 -9.41992188 23.76831055 C-8.36874715 21.04630834 -7.32086093 18.32305699 -6.2734375 15.59960938 C-5.60696162 13.86971815 -4.94030163 12.13989784 -4.2734375 10.41015625 C-3.80313614 9.18837425 -3.80313614 9.18837425 -3.32333374 7.94190979 C-1.1161316 2.2322632 -1.1161316 2.2322632 0 0 Z " fill="#221F1F" transform="translate(680,459)"/>
<path d="M0 0 C15.84 0 31.68 0 48 0 C48 4.95 48 9.9 48 15 C37.11 15 26.22 15 15 15 C15 20.61 15 26.22 15 32 C24.9 32 34.8 32 45 32 C45 36.62 45 41.24 45 46 C35.1 46 25.2 46 15 46 C15 55.57 15 65.14 15 75 C10.05 75 5.1 75 0 75 C0 50.25 0 25.5 0 0 Z " fill="#221F1F" transform="translate(1353,231)"/>
<path d="M0 0 C7.48577724 13.10541172 8.25707826 28.32505114 8.3125 43 C8.31805908 44.26521484 8.32361816 45.53042969 8.3293457 46.83398438 C8.23039984 59.5328819 8.23039984 59.5328819 6 64 C3.2265625 65.41796875 3.2265625 65.41796875 -0.375 66.1875 C-1.01896729 66.33348633 -1.66293457 66.47947266 -2.32641602 66.62988281 C-4.54494939 67.12144072 -6.77034829 67.56173138 -9 68 C-10.81400952 68.37530085 -12.62780369 68.75164375 -14.44140625 69.12890625 C-19.28719804 70.1247049 -24.14069111 71.072538 -29 72 C-28.72285156 70.99839844 -28.44570312 69.99679687 -28.16015625 68.96484375 C-27.79405048 67.62245591 -27.42817749 66.28000457 -27.0625 64.9375 C-26.88009766 64.28072266 -26.69769531 63.62394531 -26.50976562 62.94726562 C-22.01260587 46.3486578 -23.27872098 29.1439569 -29 13 C-23.51487609 8.9775758 -17.727033 5.6644743 -11.6875 2.5625 C-10.99398437 2.19640625 -10.30046875 1.8303125 -9.5859375 1.453125 C-3.73911584 -1.48731541 -3.73911584 -1.48731541 0 0 Z " fill="#221E1F" transform="translate(253,504)"/>
<path d="M0 0 C0 0.33 0 0.66 0 1 C-13.65618714 3.45529666 -27.33526282 5.17786518 -41.125 6.6875 C-43.16281026 6.91426605 -45.20057105 7.14147718 -47.23828125 7.36914062 C-52.15830117 7.91787259 -57.07894324 8.46064911 -62 9 C-62 12.3 -62 15.6 -62 19 C-62.85903427 19.00364563 -63.71806854 19.00729126 -64.60313416 19.01104736 C-72.82188843 19.04940193 -81.04026479 19.10677147 -89.25874996 19.18390274 C-93.48086212 19.22289989 -97.70278059 19.25531576 -101.92504883 19.27099609 C-121.65252731 19.3495706 -140.59304439 20.03521397 -160 24 C-162.0747283 24.40390973 -164.14976628 24.8062317 -166.22509766 25.20703125 C-170.2004463 25.98182443 -174.17128735 26.77337153 -178.13671875 27.59765625 C-183.0914107 28.61801836 -188.05289912 29.59836997 -193.01953125 30.55859375 C-210.73334174 33.99965683 -228.30369991 37.84040129 -245.8269043 42.15527344 C-246.60455643 42.34475052 -247.38220856 42.5342276 -248.1834259 42.72944641 C-249.63469033 43.08343186 -251.08481382 43.44214336 -252.53349304 43.80656433 C-256.09535393 44.67319305 -259.3320253 45.19484183 -263 45 C-259.01880444 42.34586963 -254.95146084 41.35800793 -250.375 40.0625 C-249.44598877 39.79743652 -248.51697754 39.53237305 -247.55981445 39.25927734 C-239.12370498 36.91643359 -230.65254088 35.29277806 -222 34 C-222 33.34 -222 32.68 -222 32 C-217.96636382 31.17819736 -213.93191212 30.36054854 -209.89672852 29.54638672 C-208.53029865 29.27012363 -207.16407929 28.99281679 -205.7980957 28.71435547 C-197.88744938 27.10255037 -189.98173825 25.65071952 -181.99291992 24.46972656 C-178.33555801 23.89571854 -174.72693861 23.15742247 -171.10351562 22.40209961 C-151.75701636 18.40468382 -132.15718578 15.94221726 -112.6013031 13.2166748 C-103.4773001 11.93954502 -94.37327654 10.55489358 -85.28125 9.06616211 C-80.79838253 8.34827802 -76.55902619 7.81587132 -72 8 C-71.67 8 -71.34 8 -71 8 C-71 7.67 -71 7.34 -71 7 C-65.34825885 6.32358453 -59.69639777 5.64818224 -54.04443359 4.97363281 C-52.13033956 4.7450556 -50.21627594 4.51622348 -48.30224609 4.28710938 C-41.86904759 3.51715176 -35.43504641 2.75436054 -29 2 C-28.13526062 1.89830505 -27.27052124 1.79661011 -26.37957764 1.6918335 C-23.93054973 1.40539439 -21.4810264 1.12370712 -19.03125 0.84375 C-18.31365509 0.75952789 -17.59606018 0.67530579 -16.85671997 0.58853149 C-11.22292041 -0.0465782 -5.66210576 -0.22448877 0 0 Z " fill="#211E22" transform="translate(657,541)"/>
<path d="M0 0 C0 11.22 0 22.44 0 34 C-2.31 34.66 -4.62 35.32 -7 36 C-7 36.66 -7 37.32 -7 38 C-7.7425 37.95875 -8.485 37.9175 -9.25 37.875 C-11.92318032 37.79511607 -11.92318032 37.79511607 -13.71875 38.9375 C-16.83964261 40.39106642 -19.84396177 40.68347653 -23.25 41.125 C-25.14492187 41.37636719 -25.14492187 41.37636719 -27.078125 41.6328125 C-28.04234375 41.75398437 -29.0065625 41.87515625 -30 42 C-32.03456363 19.71370302 -32.03456363 19.71370302 -28.96582031 14.11230469 C-26.18563518 11.31989896 -22.64809304 10.0037541 -18.97753906 8.74511719 C-15.39072866 7.39364245 -12.14239996 5.3811483 -8.8125 3.5 C-2.37874714 0 -2.37874714 0 0 0 Z " fill="#221E23" transform="translate(145,561)"/>
<path d="M0 0 C0 10.23 0 20.46 0 31 C-10.23 31 -20.46 31 -31 31 C-31 23.08 -31 15.16 -31 7 C-6.31578947 0 -6.31578947 0 0 0 Z " fill="#221E1F" transform="translate(317,602)"/>
<path d="M0 0 C-3.70508413 2.24256667 -7.61433813 2.74412749 -11.82421875 3.3671875 C-12.59424225 3.4866423 -13.36426575 3.60609711 -14.15762329 3.72917175 C-15.80877755 3.98445999 -17.46040898 4.23667736 -19.11245728 4.4861145 C-21.7096699 4.87834812 -24.30550369 5.27876326 -26.90112305 5.68139648 C-31.17076081 6.34268945 -35.44130099 6.99788482 -39.71228027 7.65045166 C-56.05443334 10.14742382 -72.26569271 12.94701573 -88.45849609 16.28173828 C-92.30805409 17.06247726 -96.16306028 17.81300297 -100.01953125 18.55859375 C-117.73334174 21.99965683 -135.30369991 25.84040129 -152.8269043 30.15527344 C-153.60455643 30.34475052 -154.38220856 30.5342276 -155.1834259 30.72944641 C-156.63469033 31.08343186 -158.08481382 31.44214336 -159.53349304 31.80656433 C-163.09535393 32.67319305 -166.3320253 33.19484183 -170 33 C-166.01880444 30.34586963 -161.95146084 29.35800793 -157.375 28.0625 C-156.44598877 27.79743652 -155.51697754 27.53237305 -154.55981445 27.25927734 C-146.12370498 24.91643359 -137.65254088 23.29277806 -129 22 C-129 21.34 -129 20.68 -129 20 C-124.96636382 19.17819736 -120.93191212 18.36054854 -116.89672852 17.54638672 C-115.53029865 17.27012363 -114.16407929 16.99281679 -112.7980957 16.71435547 C-104.88744938 15.10255037 -96.98173825 13.65071952 -88.99291992 12.46972656 C-85.33386804 11.89545331 -81.72357592 11.1566007 -78.09838867 10.40136719 C-61.36691954 6.94235428 -44.46003473 4.67953849 -27.54589844 2.32348633 C-25.96730797 2.10342674 -25.96730797 2.10342674 -24.35682678 1.87892151 C-22.36247806 1.60175895 -20.36789029 1.32630928 -18.37303162 1.05284119 C-17.47544632 0.92873367 -16.57786102 0.80462616 -15.65307617 0.67675781 C-14.87212082 0.5697052 -14.09116547 0.46265259 -13.2865448 0.35235596 C-11.65354236 0.10071071 -10.02974359 -0.21391011 -8.41621399 -0.56964111 C-5.40745969 -1.10553907 -2.97056435 -0.62174603 0 0 Z " fill="#111483" transform="translate(564,553)"/>
<path d="M0 0 C0 0.99 0 1.98 0 3 C5.94 2.67 11.88 2.34 18 2 C14.98144637 4.01236908 14.35947939 4.25196659 10.97119141 4.32397461 C10.14678558 4.34931778 9.32237976 4.37466095 8.47299194 4.40077209 C7.11350937 4.43248756 7.11350937 4.43248756 5.7265625 4.46484375 C-3.49381263 4.78211715 -12.66022216 5.39745945 -21.8515625 6.19140625 C-23.77775421 6.35665298 -23.77775421 6.35665298 -25.74285889 6.52523804 C-30.37718466 6.92586984 -35.01100138 7.33214582 -39.64465332 7.74047852 C-44.25481001 8.14646372 -48.86558966 8.54477351 -53.4765625 8.94140625 C-54.65803864 9.04763809 -55.83951477 9.15386993 -57.05679321 9.26332092 C-64.3914301 9.89250024 -71.63930407 10.12743826 -79 10 C-79 9.67 -79 9.34 -79 9 C-78.18732666 8.91959473 -77.37465332 8.83918945 -76.53735352 8.75634766 C-72.87802571 8.38886842 -69.22032525 8.00713343 -65.5625 7.625 C-64.28310547 7.49867188 -63.00371094 7.37234375 -61.68554688 7.2421875 C-59.86313477 7.04882812 -59.86313477 7.04882812 -58.00390625 6.8515625 C-56.87799072 6.73635254 -55.7520752 6.62114258 -54.59204102 6.50244141 C-53.30898071 6.25373291 -53.30898071 6.25373291 -52 6 C-51.67 5.34 -51.34 4.68 -51 4 C-47.04 4 -43.08 4 -39 4 C-39 3.67 -39 3.34 -39 3 C-26.0163415 0.55070179 -13.19860568 -0.19732135 0 0 Z " fill="#0D1192" transform="translate(743,529)"/>
<path d="M0 0 C0.99 0.495 0.99 0.495 2 1 C-8.22922922 7.54833361 -18.81495965 13.42996809 -29.42578125 19.33203125 C-33.6864012 21.70267261 -37.93393324 24.09392066 -42.16796875 26.51171875 C-52.96368271 32.67488742 -63.7929366 38.61605517 -75 44 C-75 43.34 -75 42.68 -75 42 C-65.6707898 36.65943253 -56.33727218 31.32645733 -47 26 C-45.94506348 25.39800781 -44.89012695 24.79601562 -43.80322266 24.17578125 C-37.21793004 20.42213165 -30.61828403 16.69518105 -24 13 C-22.91444824 12.39365723 -21.82889648 11.78731445 -20.71044922 11.16259766 C-17.37500768 9.30648931 -14.03261212 7.46361306 -10.6875 5.625 C-9.64819336 5.04661377 -8.60888672 4.46822754 -7.53808594 3.87231445 C-6.58063477 3.34984131 -5.62318359 2.82736816 -4.63671875 2.2890625 C-3.36380981 1.58837646 -3.36380981 1.58837646 -2.06518555 0.87353516 C-1.38367432 0.58526855 -0.70216309 0.29700195 0 0 Z " fill="#0B10A1" transform="translate(113,535)"/>
<path d="M0 0 C0.66 0.66 1.32 1.32 2 2 C0.63875 2.433125 0.63875 2.433125 -0.75 2.875 C-3.85716507 3.83432035 -3.85716507 3.83432035 -5.9375 5.125 C-8.98476476 6.41777899 -11.73597089 6.18475636 -15 6 C-15.495 5.505 -15.495 5.505 -16 5 C-18.34356685 5.28376658 -20.64019855 5.63210594 -22.96484375 6.03125 C-24.4198568 6.26732852 -25.87493732 6.5029915 -27.33007812 6.73828125 C-29.62144706 7.11509822 -31.91201522 7.49567421 -34.20141602 7.88427734 C-42.66855701 9.31224723 -50.42554606 10.4304948 -59 9 C-59 8.67 -59 8.34 -59 8 C-53.70230402 7.1811181 -48.4044457 6.36329682 -43.10644531 5.54638672 C-41.31050374 5.26932244 -39.51460404 4.99198658 -37.71875 4.71435547 C-32.59217674 3.92191083 -27.46492915 3.13416334 -22.33630371 2.35510254 C-20.83719884 2.12724862 -19.33824272 1.89841265 -17.83947754 1.66833496 C-15.92753799 1.37584749 -14.01457779 1.09005442 -12.1015625 0.8046875 C-11.05564941 0.64726074 -10.00973633 0.48983398 -8.93212891 0.32763672 C-5.90100083 -0.01106219 -3.04580023 -0.19459731 0 0 Z " fill="#281EC6" transform="translate(595,545)"/>
<path d="M0 0 C0 0.33 0 0.66 0 1 C-13.65618714 3.45529666 -27.33526282 5.17786518 -41.125 6.6875 C-43.16281026 6.91426605 -45.20057105 7.14147718 -47.23828125 7.36914062 C-52.15830117 7.91787259 -57.07894324 8.46064911 -62 9 C-62.33 8.34 -62.66 7.68 -63 7 C-56.43035509 5.6025919 -49.89116226 4.50424551 -43.22265625 3.7109375 C-41.88466225 3.54871201 -41.88466225 3.54871201 -40.51963806 3.38320923 C-38.64850857 3.15773546 -36.77713021 2.93431812 -34.90551758 2.71289062 C-32.07209789 2.3761407 -29.24019028 2.02825487 -26.40820312 1.6796875 C-8.82139225 -0.44216857 -8.82139225 -0.44216857 0 0 Z " fill="#0B109B" transform="translate(657,541)"/>
<path d="M0 0 C-2.90981115 2.90981115 -6.43610153 3.26148405 -10.33203125 4.1640625 C-11.57517342 4.45946426 -11.57517342 4.45946426 -12.84342957 4.76083374 C-14.59865352 5.17608395 -16.35473048 5.5877424 -18.11157227 5.99609375 C-20.79354845 6.62058716 -23.47203644 7.25860981 -26.15039062 7.8984375 C-27.85657879 8.30029539 -29.56295335 8.70136292 -31.26953125 9.1015625 C-32.06865433 9.2921524 -32.8677774 9.48274231 -33.69111633 9.67910767 C-37.53493121 10.56482472 -41.02457233 11.24135638 -45 11 C-42.33205564 9.22137042 -40.64293741 8.46404682 -37.640625 7.59765625 C-36.77896729 7.34838379 -35.91730957 7.09911133 -35.02954102 6.84228516 C-34.11229248 6.58495605 -33.19504395 6.32762695 -32.25 6.0625 C-31.31148193 5.79743652 -30.37296387 5.53237305 -29.40600586 5.25927734 C-9.52071079 -0.25848084 -9.52071079 -0.25848084 0 0 Z " fill="#0B109E" transform="translate(439,575)"/>
<path d="M0 0 C-3.7073599 2.25162482 -7.61749639 2.73057355 -11.8359375 3.32421875 C-12.59290924 3.43474075 -13.34988098 3.54526276 -14.12979126 3.65913391 C-15.72794989 3.89028633 -17.32663196 4.11784466 -18.92578125 4.34204102 C-21.36125511 4.6855613 -23.79378456 5.04614158 -26.2265625 5.40820312 C-27.78370549 5.63124879 -29.34099316 5.85328714 -30.8984375 6.07421875 C-31.62050385 6.18247482 -32.34257019 6.2907309 -33.08651733 6.40226746 C-37.29613351 6.97626117 -40.85242867 6.92786376 -45 6 C-45 5.67 -45 5.34 -45 5 C-39.55754666 4.11503894 -34.11328296 3.24262168 -28.66699219 2.3815918 C-26.81586029 2.0871524 -24.96526191 1.7893376 -23.11523438 1.48803711 C-20.45056287 1.05466983 -17.78418648 0.63361771 -15.1171875 0.21484375 C-14.29507782 0.07843979 -13.47296814 -0.05796417 -12.62594604 -0.19850159 C-8.143415 -0.88895611 -4.48572706 -1.06307315 0 0 Z " fill="#17176C" transform="translate(564,553)"/>
<path d="M0 0 C14.19 0 28.38 0 43 0 C43 0.33 43 0.66 43 1 C10.94870807 5.86914907 10.94870807 5.86914907 0 1 C0 0.67 0 0.34 0 0 Z " fill="#0B109F" transform="translate(890,526)"/>
<path d="M0 0 C0 0.99 0 1.98 0 3 C-4.95 3.66 -9.9 4.32 -15 5 C-15 5.33 -15 5.66 -15 6 C-17.31 6 -19.62 6 -22 6 C-22 6.66 -22 7.32 -22 8 C-25.3 7.67 -28.6 7.34 -32 7 C-31.67 6.01 -31.34 5.02 -31 4 C-27.06768872 3.42763997 -23.13498705 2.85805073 -19.2019043 2.29101562 C-17.86422917 2.09776526 -16.52666276 1.90376078 -15.18920898 1.70898438 C-13.26575068 1.42900084 -11.34186448 1.15196185 -9.41796875 0.875 C-8.26063232 0.70742188 -7.1032959 0.53984375 -5.91088867 0.3671875 C-3 0 -3 0 0 0 Z " fill="#201D40" transform="translate(681,534)"/>
<path d="M0 0 C0 0.99 0 1.98 0 3 C-10.35694312 3.76214036 -20.6135207 4.13430792 -31 4 C-31 3.34 -31 2.68 -31 2 C-21.20520079 -0.84983155 -10.10348915 -0.15104884 0 0 Z " fill="#1C1A58" transform="translate(743,529)"/>
<path d="M0 0 C-0.94875 0.28875 -1.8975 0.5775 -2.875 0.875 C-6.05211578 1.76825109 -6.05211578 1.76825109 -8 4 C-10.0557807 4.80357174 -12.14545698 5.52202236 -14.25 6.1875 C-15.36890625 6.55230469 -16.4878125 6.91710937 -17.640625 7.29296875 C-21.16335952 8.03438148 -23.52534879 7.82654582 -27 7 C-19.41036291 1.94024194 -9.29374537 -3.07578716 0 0 Z " fill="#251E7D" transform="translate(221,623)"/>
<path d="M0 0 C0.66 0.33 1.32 0.66 2 1 C-7.22273802 6.41835859 -16.58406217 11.39967651 -26.19042969 16.10253906 C-29.55098922 17.76921699 -32.86606667 19.52725232 -36.1796875 21.28515625 C-36.78039062 21.52105469 -37.38109375 21.75695312 -38 22 C-38.66 21.67 -39.32 21.34 -40 21 C-30.43161955 15.07916324 -20.70162612 9.7011918 -10.5625 4.8125 C-9.54986084 4.31903076 -8.53722168 3.82556152 -7.49389648 3.31713867 C-6.54844971 2.86830322 -5.60300293 2.41946777 -4.62890625 1.95703125 C-3.78400635 1.55460205 -2.93910645 1.15217285 -2.06860352 0.73754883 C-1.38596436 0.49415771 -0.7033252 0.2507666 0 0 Z " fill="#0B109F" transform="translate(185,540)"/>
<path d="M0 0 C0 0.33 0 0.66 0 1 C-5.94 1.495 -5.94 1.495 -12 2 C-12 2.33 -12 2.66 -12 3 C-22.89 3 -33.78 3 -45 3 C-45 2.67 -45 2.34 -45 2 C-29.95428606 0.52273445 -15.11785297 -0.28345974 0 0 Z " fill="#191873" transform="translate(970,522)"/>
<path d="M0 0 C0.66 0.66 1.32 1.32 2 2 C1.0925 2.28875 0.185 2.5775 -0.75 2.875 C-3.85716507 3.83432035 -3.85716507 3.83432035 -5.9375 5.125 C-8.95767402 6.40628595 -11.76324398 6.12449062 -15 6 C-14.34 5.34 -13.68 4.68 -13 4 C-15.97 3.505 -15.97 3.505 -19 3 C-19 2.67 -19 2.34 -19 2 C-16.95928485 1.66089006 -14.91737379 1.32897296 -12.875 1 C-11.73804688 0.814375 -10.60109375 0.62875 -9.4296875 0.4375 C-6.21040767 0.02684016 -3.23768069 -0.22522996 0 0 Z " fill="#1E19A5" transform="translate(595,545)"/>
<path d="M0 0 C14.19 0 28.38 0 43 0 C43 0.33 43 0.66 43 1 C28.81 1 14.62 1 0 1 C0 0.67 0 0.34 0 0 Z " fill="#0B109F" transform="translate(980,526)"/>
<path d="M0 0 C-3.65668015 2.20517353 -7.24109265 2.63435612 -11.4375 3.1875 C-12.73558594 3.36667969 -14.03367187 3.54585937 -15.37109375 3.73046875 C-18.58143974 3.9689121 -20.92113931 3.83645348 -24 3 C-24 2.67 -24 2.34 -24 2 C-21.12679254 1.46692063 -18.2521861 0.94825629 -15.375 0.4375 C-14.56675781 0.28603516 -13.75851562 0.13457031 -12.92578125 -0.02148438 C-8.32436851 -0.82579636 -4.6203988 -1.12893239 0 0 Z " fill="#1A1956" transform="translate(564,553)"/>
<path d="M0 0 C1.07765625 0.00902344 2.1553125 0.01804687 3.265625 0.02734375 C4.08546875 0.03894531 4.9053125 0.05054688 5.75 0.0625 C2.09271595 2.50068936 -1.18287895 2.7341692 -5.4375 3.1875 C-6.18708984 3.27386719 -6.93667969 3.36023438 -7.70898438 3.44921875 C-9.55517412 3.66088382 -11.40249344 3.86265464 -13.25 4.0625 C-9.41238066 -0.35076224 -5.61388396 -0.06102048 0 0 Z " fill="#0F1387" transform="translate(519.25,558.9375)"/>
<path d="M0 0 C0 0.33 0 0.66 0 1 C-3.3 1.66 -6.6 2.32 -10 3 C-10 3.33 -10 3.66 -10 4 C-18.42857143 5.28571429 -18.42857143 5.28571429 -23 4 C-23 3.67 -23 3.34 -23 3 C-20.29273634 2.4935186 -17.58442876 1.994649 -14.875 1.5 C-13.73417969 1.28537109 -13.73417969 1.28537109 -12.5703125 1.06640625 C-8.31957086 0.29687544 -4.34140803 -0.16644376 0 0 Z " fill="#281ECA" transform="translate(534,554)"/>
<path d="M0 0 C-3.09361358 2.06240906 -4.46698546 2.38991902 -8.0625 2.75 C-8.94035156 2.84796875 -9.81820312 2.9459375 -10.72265625 3.046875 C-13 3 -13 3 -15 1 C-11.5259046 -2.4740954 -4.29523243 -0.78892024 0 0 Z " fill="#291ED6" transform="translate(582,548)"/>
<path d="M0 0 C0 0.99 0 1.98 0 3 C-3.96 3 -7.92 3 -12 3 C-8.48214012 -0.51785988 -4.80656342 -0.10924008 0 0 Z " fill="#211E21" transform="translate(743,529)"/>
<path d="M0 0 C3.3 0 6.6 0 10 0 C7 3 7 3 4.95703125 3.29296875 C2.97135417 3.1953125 0.98567708 3.09765625 -1 3 C-0.67 2.01 -0.34 1.02 0 0 Z " fill="#221E23" transform="translate(650,538)"/>
<path d="M0 0 C-3.90028225 2.60018816 -7.47434569 2.15085514 -12 2 C-12 1.34 -12 0.68 -12 0 C-7.74433453 -1.16063604 -4.3164922 -0.76173392 0 0 Z " fill="#1A195E" transform="translate(578,551)"/>
<path d="M0 0 C0.66 0.66 1.32 1.32 2 2 C0.58566794 2.2236337 -0.83167618 2.42826476 -2.25 2.625 C-3.03890625 2.74101563 -3.8278125 2.85703125 -4.640625 2.9765625 C-7.32152459 3.00319395 -8.72694089 2.36592084 -11 1 C-7.26779887 0.12183503 -3.83453269 -0.25563551 0 0 Z " fill="#281EB5" transform="translate(595,545)"/>
<path d="M0 0 C-1 1.5625 -1 1.5625 -3 3 C-5.76614782 2.96726452 -8.26030547 2.49404328 -11 2 C-11 1.67 -11 1.34 -11 1 C-7.27569643 0.30710631 -3.78916254 -0.11144596 0 0 Z " fill="#1414A9" transform="translate(509,560)"/>
</svg>
